<?xml version="1.0" encoding="utf-8"?>
<!-- Generator: Adobe Illustrator 28.0.0, SVG Export Plug-In . SVG Version: 6.00 Build 0)  -->
<svg version="1.1" id="Layer_1" xmlns="http://www.w3.org/2000/svg" xmlns:xlink="http://www.w3.org/1999/xlink" x="0px" y="0px"
	 viewBox="0 0 230 90" style="enable-background:new 0 0 230 90;" xml:space="preserve">
<style type="text/css">
	.st0{fill:none;stroke:#929497;stroke-linecap:round;}
	.st1{fill:#929497;}
	.st2{fill-rule:evenodd;clip-rule:evenodd;fill:#231F20;}
	.st3{fill:#231F20;}
	.st4{fill:#FFFFFF;}
	.st5{fill:#F58025;}
</style>
<g>
	<line class="st0" x1="174.9" y1="36" x2="174.9" y2="88.2"/>
	<g>
		<path class="st1" d="M191.6,80.8l2.4-5.8h1.3l-3.2,7.1v4.5H191v-4.5l-3.1-7.1h1.3L191.6,80.8z"/>
		<path class="st1" d="M196.6,86.6V75h5.2v1.2h-4.1V80h3.8v1.2h-3.8v4.3h4.1v1.2H196.6z"/>
		<path class="st1" d="M205.7,75h1.5l2.9,11.6h-1.3l-0.8-3.3h-3.3l-0.8,3.3h-1.3L205.7,75z M206.4,76L206.4,76l-1.4,6.2h2.7
			L206.4,76z"/>
		<path class="st1" d="M212.7,86.6h-1.2V75h2.7c2.2,0,3.6,0.6,3.5,3.3c0,1.4-0.8,2.3-2,2.5v0c1.3,0.1,1.7,0.6,1.8,2.2
			c0,0.9,0.1,1.7,0.2,2.6c0,0.2,0.1,0.7,0.4,0.7v0.3h-1.3c-0.2-0.7-0.4-2.2-0.4-2.9c0-1.2-0.4-2.1-1.8-2.1h-2V86.6z M212.7,80.4h1.8
			c0.5,0,2-0.1,2-2.1c0-2-1.4-2-2.2-2h-1.6V80.4z"/>
		<path class="st1" d="M224.5,78.1c0.1-1.2-0.5-2.1-1.7-2.1c-1.7,0-1.9,1.2-1.9,2.1c0,0.8,0.3,1.3,1,1.6c0.6,0.2,1.1,0.5,1.7,0.7
			c2,0.8,2.3,1.6,2.3,3.1c0,2.2-1.2,3.5-3.2,3.5c-1,0-2.2-0.3-2.8-1.8c-0.2-0.6-0.2-1.5-0.2-2.1h1.2c-0.1,1.7,0.2,2.8,2,2.8
			c1.2,0,2-0.7,2-2c0-1.8-0.6-1.8-1.7-2.2c-0.6-0.2-1.5-0.6-2-0.9c-1-0.6-1.2-1.5-1.2-2.6c0-1.9,1.2-3.2,2.9-3.2
			c1.9,0,3.1,1.1,3,3.3H224.5z"/>
	</g>
	<g>
		<path class="st1" d="M190.8,62.5c0.2,3.2,1.4,6.3,5.5,6.3c5,0,6.3-4.8,6.3-9.2c0-4.3-1.2-8.4-6.2-8.4c-2.3,0-4.1,1.3-5,3.3h-2.7
			l2.1-17.1h13.5v2.8h-10.9L192,50.4l0.1,0.1c1.3-1.4,3.4-1.7,4.9-1.7c6.7,0,8.7,5.5,8.7,10.9c0,5.9-2.4,11.6-9.4,11.6
			c-6,0-8.4-3.6-8.6-8.7H190.8z"/>
		<path class="st1" d="M218.4,36.7c9.6,0,8.9,12.9,8.9,17.8c0,8.1-0.8,16.7-9.2,16.7c-7.9,0-8.9-8.1-8.9-17.5
			C209.3,39.2,213.5,36.7,218.4,36.7z M218.1,68.7c2.1,0,6-0.1,6-14.5c0-8.7-0.3-15.1-6.1-15.1c-4,0-5.5,3.7-5.5,15.3
			C212.4,65,214,68.7,218.1,68.7z"/>
	</g>
	<g>
		<g>
			<path class="st2" d="M64.2,52.9c-1.8,0-2.7,1.6-2.7,3.1c0,1.7,1,2.6,2.3,2.6c1.6,0,2.7-1.3,2.7-3.2
				C66.4,53.7,65.4,52.9,64.2,52.9L64.2,52.9z"/>
			<g>
				<path class="st3" d="M52.9,37.8l-0.1,0.4l0.8,0.1c0.3,0,0.4,0.2,0.3,0.7l-1.3,6.1c-0.2,0.8-0.3,1.4-0.5,1.8
					c-0.2,0.5-0.4,0.6-0.8,0.6l-0.4,0l-0.1,0.4H54l0.1-0.4l-0.5,0c-0.4,0-0.7-0.2-0.6-0.6c0-0.5,0.1-1.1,0.3-1.8l1.3-6.1h0
					c1.3,3,2.5,6,3.7,9h0.9l1.5-7.3c0.2-0.8,0.3-1.4,0.5-1.8c0.2-0.5,0.4-0.6,0.8-0.6l0.4,0l0.1-0.4h-3.2l-0.1,0.4l0.5,0.1
					c0.4,0.1,0.7,0.1,0.6,0.6c0,0.5-0.1,1.1-0.3,1.8l-1.1,5.4h-0.1c-1.2-2.8-2.3-5.6-3.4-8.3H52.9L52.9,37.8z"/>
				<path class="st3" d="M63.9,37.8l-0.1,0.4l0.8,0.1c0.3,0,0.4,0.2,0.3,0.7l-1.6,7.8c-0.1,0.5-0.2,0.7-0.6,0.7l-0.8,0.1l-0.1,0.4h7
					l0.7-2.6h-0.4c-0.7,1.8-1.3,2.1-2.9,2.1c-0.7,0-1.3,0-1.5-0.2c-0.2-0.2-0.2-0.4-0.1-1.1l0.7-3.3h1.8c1.2,0,1.2,0.3,1.2,1.3h0.4
					l0.6-3.1h-0.4c-0.3,1-0.5,1.3-1.7,1.3h-1.8l0.8-3.7c0.1-0.4,0.1-0.4,0.4-0.4h1.6c1.7,0,1.7,0.6,1.5,2h0.4l0.5-2.5H63.9
					L63.9,37.8z"/>
				<path class="st3" d="M71.7,37.8l-0.1,0.4l0.6,0.1c0.3,0,0.4,0.2,0.4,0.6l0.6,9.1h0.9l3.7-8.2h0.1l0.7,8.2h0.9l2.3-5.3
					c0.8-1.7,1.4-3.2,1.7-3.7c0.4-0.7,0.5-0.8,1.3-0.9l0.1-0.4h-3l-0.1,0.4l0.9,0.1c0.2,0,0.2,0.2,0.1,0.5c-0.2,0.6-0.7,1.8-1.5,3.7
					l-1.6,3.7h-0.1L79,38.1H78l-3.6,8.2h-0.1l-0.4-7.5c0-0.3,0.1-0.5,0.3-0.5l0.9-0.1l0.1-0.4H71.7L71.7,37.8z"/>
				<path class="st3" d="M89.6,37.8l-0.1,0.4l0.8,0.1c0.3,0,0.4,0.2,0.3,0.7L89,46.9c-0.1,0.5-0.2,0.7-0.6,0.7l-0.8,0.1l-0.1,0.4h7
					l0.7-2.6h-0.4c-0.7,1.8-1.3,2.1-2.9,2.1c-0.7,0-1.3,0-1.5-0.2c-0.2-0.2-0.2-0.4-0.1-1.1l0.7-3.3h1.8c1.2,0,1.2,0.3,1.2,1.3h0.4
					l0.6-3.1h-0.4c-0.3,1-0.5,1.3-1.7,1.3h-1.8l0.8-3.7c0.1-0.4,0.1-0.4,0.4-0.4h1.6c1.7,0,1.7,0.6,1.5,2h0.4l0.5-2.5H89.6
					L89.6,37.8z"/>
				<path class="st3" d="M98.2,37.8l-0.1,0.4l0.8,0.1c0.3,0,0.4,0.2,0.3,0.7l-1.3,6.1c-0.2,0.8-0.3,1.4-0.5,1.8
					c-0.2,0.5-0.4,0.6-0.8,0.6l-0.4,0l-0.1,0.4h3.2l0.1-0.4l-0.5,0c-0.4,0-0.7-0.2-0.6-0.6c0-0.5,0.1-1.1,0.3-1.8l1.3-6.1h0
					c1.3,3,2.5,6,3.7,9h0.9l1.5-7.3c0.2-0.8,0.3-1.4,0.5-1.8c0.2-0.5,0.4-0.6,0.8-0.6l0.4,0l0.1-0.4h-3.2l-0.1,0.4l0.5,0.1
					c0.4,0.1,0.7,0.1,0.6,0.6c0,0.5-0.1,1.1-0.3,1.8l-1.1,5.4h-0.1c-1.2-2.8-2.3-5.6-3.4-8.3H98.2L98.2,37.8z"/>
				<path class="st3" d="M116.3,38.4c-0.8-0.5-1.9-0.7-3-0.7c-2.1,0-3.6,0.8-4.5,2.1c-0.9,1.2-1.3,2.8-1.3,4.1
					c0,1.5,0.4,2.7,1.1,3.4c0.8,0.8,1.9,1.1,3.1,1.1c1,0,2.1-0.3,2.9-0.6l0.6-3c0.1-0.5,0.2-0.7,0.4-0.8l0.6-0.1l0.1-0.4h-3.5
					l-0.1,0.4l1,0.1c0.3,0,0.4,0.2,0.2,0.7l-0.5,2.2c-0.1,0.4-0.3,0.8-1.7,0.8c-1.6,0-2.8-1.2-2.8-3.8c0-2.4,1.1-5.9,4.3-5.9
					c2,0,2.2,1.3,2.1,2.5h0.4L116.3,38.4L116.3,38.4z"/>
				<path class="st3" d="M123.3,48.1l0.7-2.6h-0.4c-0.7,1.8-1.3,2.1-2.8,2.1c-0.7,0-1.3,0-1.5-0.2c-0.2-0.2-0.2-0.4-0.1-1.1l1.5-7.2
					c0.1-0.5,0.2-0.7,0.6-0.7l0.8-0.1l0.1-0.4h-3.8l-0.1,0.4l0.8,0.1c0.3,0,0.4,0.2,0.3,0.7l-1.6,7.8c-0.1,0.5-0.2,0.7-0.6,0.7
					l-0.7,0.1l-0.1,0.4H123.3L123.3,48.1z"/>
				<path class="st2" d="M133.5,48.1l0.1-0.4l-0.5,0c-0.4,0-0.5-0.3-0.5-0.9l-1-8.9h-1l-2.3,4.4c-0.7,1.3-1.8,3.5-2.3,4.4
					c-0.4,0.8-0.7,0.9-1.1,1l-0.4,0.1l-0.1,0.4h3l0.1-0.4l-0.7-0.1c-0.3,0-0.3-0.2-0.2-0.5c0.4-0.9,0.9-1.9,1.4-2.9h3l0.3,2.9
					c0,0.4-0.1,0.6-0.3,0.6l-0.7,0.1l-0.1,0.4H133.5L133.5,48.1z M130.9,43.6h-2.7c0.7-1.5,1.5-2.9,2.2-4.4h0L130.9,43.6L130.9,43.6
					z"/>
				<path class="st3" d="M136.1,37.8l-0.1,0.4l0.8,0.1c0.3,0,0.4,0.2,0.3,0.7l-1.3,6.1c-0.2,0.8-0.3,1.4-0.5,1.8
					c-0.2,0.5-0.4,0.6-0.8,0.6l-0.4,0l-0.1,0.4h3.2l0.1-0.4l-0.5,0c-0.4,0-0.7-0.2-0.6-0.6c0-0.5,0.1-1.1,0.3-1.8l1.3-6.1h0
					c1.3,3,2.5,6,3.7,9h0.9l1.5-7.3c0.2-0.8,0.3-1.4,0.5-1.8c0.2-0.5,0.4-0.6,0.8-0.6l0.4,0l0.1-0.4h-3.2l-0.1,0.4l0.5,0.1
					c0.4,0.1,0.7,0.1,0.6,0.6c0,0.5-0.1,1.1-0.3,1.8l-1.1,5.4h-0.1c-1.2-2.8-2.3-5.6-3.4-8.3H136.1L136.1,37.8z"/>
				<path class="st2" d="M150.5,38.4c2.8,0.1,3,2.1,3,3.3c0,1.3-0.3,2.5-0.9,3.6c-0.8,1.4-1.9,2.3-4.2,2.3c-0.7,0-1.2-0.1-1.1-0.8
					l1.6-7.9C149.1,38.4,149.3,38.4,150.5,38.4L150.5,38.4z M144.7,48.1h4.1c2.7,0,4.3-1.1,5.2-2.7c0.8-1.3,0.9-2.5,0.9-3.4
					c0-1.2-0.4-2.4-1.2-3.1c-0.8-0.7-2-1.1-3.5-1.1h-3.6l-0.1,0.4l0.8,0.1c0.3,0,0.4,0.2,0.3,0.7l-1.6,7.8c-0.1,0.5-0.2,0.7-0.5,0.7
					l-0.8,0.1L144.7,48.1L144.7,48.1z"/>
			</g>
			<path class="st3" d="M32.3,87.1h12.3c9.8,0,11.7-6.1,11.7-10.2c0-5.2-3.1-7.5-6.1-8.2l0-0.1c5.4-0.8,7.6-4.4,7.6-8.2
				c0-2.6-0.8-4.6-2.5-5.8c-1.8-1.3-4.4-1.7-7.3-1.6h-9.7L38,54.3l2.4,0.3c0.9,0.1,1.2,0.7,0.8,2.4l-4.8,26
				c-0.3,1.6-0.7,2.2-1.7,2.4l-2.3,0.3L32.3,87.1z M44.4,69.6c4,0,7.5,1.4,7.5,7c0,4.4-2.2,8.8-7.6,8.8c-4,0-4.2-1.2-3.8-3.2
				l2.3-12.6H44.4z M43.1,67.8l2.1-11.5c0.3-1.5,0.5-1.7,3.2-1.7c3.4,0,5.3,2.1,5.3,5.5c0,2.5-1,4.4-2.4,5.8
				c-1.3,1.2-3.4,1.8-5.6,1.8H43.1z"/>
			<path class="st3" d="M80.6,63.8c-9.6,0-11.9,11.2-11.9,15.1c0,4.9,2.3,8.2,7.4,8.2c4.4,0,7.2-2.4,9.1-5.8
				c1.9-3.3,2.5-7.1,2.5-9.6C87.8,65.5,83.9,63.8,80.6,63.8 M80.6,65.4c2.5,0,3.3,2,3.3,4.8c0,3.2-2.1,15.4-7.6,15.4
				c-2.3,0-3.6-1.6-3.6-4.8C72.7,75.8,75.2,65.4,80.6,65.4"/>
			<path class="st3" d="M115.8,63.8l-0.3,1c-0.7-0.5-1.9-1-2.9-1c-9.6,0-14.2,11.9-14.2,17.9c0,2.7,1.1,5.4,3.9,5.4
				c4.3,0,8.1-5.6,10.4-10.2h0.1l-1.4,5.2c-0.8,3.2-0.4,5.1,1.8,5.1c3.1,0,5.3-3.1,6.7-6.5l-1-0.6c-0.7,1.6-2.5,4.8-3.6,4.8
				c-0.8,0-0.8-1-0.4-2.5l4.4-18.4H115.8z M115.1,66.4c-0.7,3.4-2.2,7.8-4.3,11.5c-2.3,3.9-4.7,6.9-6.7,6.9c-1.3,0-1.8-1.4-1.8-3.2
				c0-5,4-16.2,10.3-16.2C113.6,65.4,114.5,65.8,115.1,66.4"/>
			<path class="st3" d="M131.1,53l-7.5,1.1l-0.2,1l2.3,0.3c1,0.1,1.2,0.5,0.8,2.2l-6.1,29.5l1.3,0l1.5-3.2c0.7,1.9,2.8,3.2,5.1,3.2
				c4.7,0,8.2-3.5,10.2-7.5c2-4,2.7-8,2.7-10.1c0-3.3-1.3-5.7-4.3-5.7c-3.1,0-7.1,3.1-10.2,9.3h-0.1L131.1,53z M137.2,69.9
				c0,3.3-2.4,15.6-8.4,15.6c-2.1,0-3.3-1.6-3.3-3.9c0-2.2,0.8-5.3,2.1-7.9c1.8-3.6,4.9-7.5,7.4-7.5
				C136.5,66.2,137.2,67.4,137.2,69.9"/>
			<path class="st3" d="M149.8,63.8c-4.1,0-6.5,3-6.5,6.7c0,2.4,1.5,4.4,3.6,6.3c1.7,1.5,2.8,3.5,2.8,5.3c0,2.1-1.2,3.4-2.9,3.4
				c-1.5,0-3-1.4-3.6-3.8c-0.2-0.9-0.6-1.4-1.3-1.4c-1.2,0-2.1,1.2-2.1,2.4c0,1.9,2.2,4.3,6.1,4.3c4.4,0,7-3.1,7-6.8
				c0-2.5-1-4.4-3.7-6.9c-2.4-2.2-2.9-3.7-2.9-5c0-1.4,1-2.9,2.5-2.9c1.3,0,2.4,1,3.2,3.1c0.2,0.5,0.5,0.9,1.1,0.9
				c0.8,0,1.9-0.7,1.9-2.1C154.9,66,153.4,63.8,149.8,63.8"/>
			<path class="st3" d="M159.5,64.9c1.1,0,2,0.9,2,2.1c0,1.2-0.9,2.1-2,2.1c-1.1,0-2-0.9-2-2.1C157.6,65.8,158.4,64.9,159.5,64.9
				 M159.5,69.3c1.3,0,2.4-1.1,2.4-2.4c0-1.3-1.1-2.4-2.4-2.4c-1.3,0-2.4,1.1-2.4,2.4C157.1,68.3,158.2,69.3,159.5,69.3 M159.2,66
				c0-0.1,0-0.1,0.3-0.1c0.2,0,0.5,0.1,0.5,0.5c0,0.4-0.2,0.5-0.6,0.5h-0.2V66z M159.5,68.2v-0.1l-0.2,0c-0.1,0-0.1-0.1-0.1-0.2
				v-0.8h0.2c0.2,0,0.3,0.1,0.4,0.2c0.1,0.1,0.1,0.4,0.2,0.7c0.1,0.2,0.2,0.3,0.5,0.3h0.3v-0.1c-0.1,0-0.2-0.1-0.2-0.1
				c-0.1-0.1-0.1-0.2-0.2-0.4c-0.1-0.3-0.1-0.5-0.5-0.6v0c0.4-0.1,0.6-0.3,0.6-0.6c0-0.4-0.2-0.6-0.9-0.6h-1.2v0.1l0.2,0
				c0.1,0,0.1,0.1,0.1,0.2v1.8c0,0.1,0,0.2-0.1,0.2l-0.2,0v0.1H159.5z"/>
			<path class="st3" d="M92.1,84.7c-0.8,0-0.8-1-0.4-2.5l5.5-25.6l0.8-3.8L90.6,54l-0.2,1l2.3,0.3c0.7,0.1,1,0.3,1,1.1l-5.5,26.2
				c-0.6,2.6-0.1,4.4,2.1,4.4c2.9,0,5.2-3.1,6.5-6.5l-1-0.6C95,81.5,93.2,84.7,92.1,84.7z"/>
			<path class="st3" d="M66.2,79.9c-0.7,1.6-2.5,4.8-3.6,4.8c-0.8,0-0.8-1-0.4-2.5l1-4.4c0,0,0,0,0,0l2.2-10.2l0.8-3.8l-7.5,1.1
				l-0.2,1l2.3,0.3c0.7,0.1,1,0.3,1,1.1l-2.2,10.5c0,0,0,0,0,0l-1,4.9c-0.6,2.6-0.1,4.4,2.1,4.4c2.9,0,5.2-3.1,6.5-6.5L66.2,79.9z"
				/>
		</g>
		<path class="st3" d="M60.6,30.7c-0.7-0.1-1.3,0-1.6,0.2c-0.1,0-0.1,0.1-0.2,0.1C55,31.1,48.2,32.3,43.2,38
			c-0.1,0.1-0.1,0.2-0.3,0.1c-0.1-0.1-0.3-0.1-0.4-0.2c-0.2-0.1-0.1-0.2-0.1-0.3c2.2-6,7.9-9.1,11.2-10.4c0.1,0,0.2,0,0.2,0
			c0.4,0,0.9,0,1.5-0.2c0.9-0.3,1.6-0.7,1.5-1c-0.1-0.3-1-0.3-1.9,0c-0.6,0.2-1,0.4-1.3,0.7c-0.1,0.1-0.2,0.1-0.3,0.2
			c-2.8,1.1-9.1,4.4-11.4,10.6c-0.1,0.2-0.2,0.4-0.4,0.3c-0.8,0-1.2,0.2-1.6,0.7c-0.9,1.1-1.6,2.9-2,3.6c-0.1,0.2-0.4,0.1-0.4-0.1
			c-0.4-4.6-3.1-28.8-14-39.4c-0.3-0.3-0.6-0.5-0.9-0.7c-1.2-0.8-2.8-1.2-4.2-0.8c-1.8,0.4-2.7,2.1-3.4,3.6c-0.9,2-1.6,4-2.3,6.1
			c-1.2,4.2-1.9,8.6-1.9,13c0,0.2,0,0.4,0,0.7c0.1,1.6,0.9,3.3,2.2,4.5c0,0,1.1,1.3,4.5,3.8c0.1,0.1,0,0.3-0.1,0.3
			c-1.5-0.4-2.6-0.6-3.3-0.7c-4.2-0.8-8.3,0.6-10.6,4c-2.1,3.2-2,7.4,0,10.8c0.1,0.2,0.2,0.5,0.1,0.8c-0.5,2,0.4,4.3,2.5,5.7
			c0.2,0.1,0.3,0.2,0.5,0.3c0.3,0.1,0.4,0.4,0.5,0.7c0.1,1.6,1,3.2,2.6,4.3c0.9,0.6,2.1,0.9,2.4,1c4.8,0.6,16-5.3,16.3-5.4
			c0.3-0.2,0.7,0.1,0.5,0.3c-0.4,0.5-0.8,1-1.3,1.5c-0.6,0.6-1.3,1.1-2,1.6c-1.2,0.8-2.4,1.5-3.7,2.1c-0.7,0.3-1.4,0.6-2.1,0.9
			c-0.3,0.1-0.6,0.3-0.9,0.5c-0.8,0.7-2.2,3-2.5,3.9c-0.1,0.4-0.2,0.9,0.1,1.2c0.6,0.5,3.3-1.1,7.3-3.5c1.7-1,3.4-1.9,4.9-3.1
			c2.1-1.6,3.9-3.8,5.4-6c0.4-0.5,0.9-0.9,1.3-1.3c1.3-1.4,2.5-2.7,3.2-4.5c0.6-1.5,1-3,1.1-4.6c0-0.3,0.3-0.4,0.5-0.4
			c0.6,0.2,1.7,0.5,2.4,0.7c0.8,0.2,2,0.6,2.5-0.3c0.5-0.8-1-3.8-1.6-4.9c-0.1-0.1-0.1-0.3,0-0.4c4.9-5.6,11.5-6.7,15.2-6.8
			c0.1,0,0.2,0,0.3,0.1c0.3,0.2,0.8,0.3,1.4,0.4c1,0.1,1.8-0.1,1.8-0.5C62.4,31.2,61.6,30.8,60.6,30.7z"/>
		<path class="st4" d="M26.9,10.9c0.4,0.5,3.7,4.7,1.9,4.9c-1.9,0.2-6.5-4.9-6.5-6.3C22.4,7.6,25.2,8.7,26.9,10.9z"/>
		<path class="st5" d="M21.7,12.6c0.7,0.5,1.2,1.1,1.8,1.6c0.7,0.6,1.3,1.2,1.9,1.9c0.4,0.4,0.8,1,0.8,1.6c0,0,0,2.1,0,2.1
			c0,0.2,0,0.6-0.2,0.7c-0.2,0.2-0.5-0.1-0.6-0.2c-0.6-0.4-1.2-0.8-1.7-1.3l-3.3-2.5c0,0-1.7-1.2-1.3-2.2c0.3-0.7,1.1-2,1.9-2
			C21.1,12.3,21.4,12.4,21.7,12.6z"/>
		<path class="st5" d="M25.8,24c0,0,1.1,2.8,1.1,2.8c0.1,0.3,0.3,0.8,0,1c-0.3,0.2-0.7-0.2-1-0.3c-1.1-0.7-2.2-1.4-3.2-2.1l-6.3-4
			c0,0-3.2-1.9-3-3.2c0.1-0.9,0.6-2.5,1.8-2.5c0.5,0,0.9,0.2,1.4,0.5c1.2,0.7,2.4,1.7,3.5,2.6c1.3,1,2.6,1.9,3.8,3
			C24.5,22.4,25.5,23.2,25.8,24z"/>
		<path class="st4" d="M19.8,3.6c0.5,0,1.1,0.4,1.5,0.8c0.4,0.4,0.8,0.9,1,1.4c0.2,0.6,0.2,1.2-0.2,1.7c-0.8,1-2.3,0.2-3-0.6
			c-0.6-0.7-0.9-2-0.4-2.8C19,3.7,19.4,3.6,19.8,3.6z"/>
		<path class="st4" d="M16.3,8.2c0.8,0,1.6,0.7,2.1,1.4c0.7,1.1,0.4,3.3-1.3,2.8c-0.8-0.3-2.1-1-2.2-2.2C14.8,9.4,15.5,8.2,16.3,8.2
			z"/>
		<path class="st5" d="M9.3,35.2c1.3-0.4,2.8-0.3,4.2,0c2.3,0.5,4.6,1.5,6.6,2.9c0.3,0.2,0.5,0.4,0.6,0.7c0.2,0.6-0.3,1.2-0.9,1.1
			c-0.3,0-8.9-1.8-10.8-2.2c-0.5-0.1-1.2-0.3-1.3-0.9C7.5,36,8.6,35.4,9.3,35.2z"/>
		<path class="st5" d="M5.4,45c-0.7-0.6-0.7-2-0.5-2.7c0.4-1,1-1.6,2-1.9c1.1-0.4,2-0.3,3-0.2c2.2,0.3,7.9,1.2,8.5,1.5
			c0.5,0.3,0.5,0.9,0,1.1c-1.2,0.6-3.4,0.8-6.8,1.5C9.1,44.9,6.2,45.6,5.4,45z"/>
		<path class="st5" d="M8.2,51.5c0,0-0.1,0-0.1-0.1c-0.5-0.3-0.9-0.9-0.9-1.5c0-0.6,0.2-1.2,0.7-1.7c0.5-0.4,1.1-0.6,1.7-0.8
			c1.5-0.5,7.1-2.2,8.5-2.3c3.5-0.3,6-0.1,9.4,0.4c1.4,0.2,2.2,0.4,2.5,0.7c0.4,0.4-0.1,0.7-0.5,0.8c-5.4,1.6-10.5,2.7-16,4.1
			C10.8,51.9,9.6,52.2,8.2,51.5z"/>
		<path class="st4" d="M27.4,52c-2.9,1.5-4.4,2.3-7.3,3.3c-1.8,0.7-3.6,1.3-5.5,1.8c-1.2,0.3-3,0.2-3.8-1.1
			c-0.8-1.3,0.6-1.8,1.5-2.1c3.1-0.9,10.1-2.6,12.4-3.3c2.3-0.7,4.3-1.3,4.8-1.3c0.2,0,0.7,0.3,0.4,0.6C29.5,50.5,28.9,51.2,27.4,52
			z"/>
		<path class="st5" d="M30.7,30.5c-0.7-1.4-2.8-6.6-3-8c-0.1-0.5-0.2-2.3,0.7-2.3c1.8,0,2.6,2.5,3,3.5c1.1,2.6,1.7,5.3,2.3,8
			c0.4,1.5,1.4,5.1,0.8,5.3C33.8,37.3,31.6,32.4,30.7,30.5z"/>
		<path class="st4" d="M21.2,41.6c0.5-0.7,1.1-1.6,2.7-1.6c1.6,0,4.6,1.4,6.4,2.3c1.8,0.9,2.4,1.5,2.6,1.9c0.2,0.4-0.5,0.9-1.9,0.4
			c-4-1.3-9.2-1.4-10-1.7C20.3,42.7,20.9,42,21.2,41.6z"/>
		<path class="st5" d="M34.5,43c-1.2-1-2.2-2-3.9-3.4c-5.2-4.3-8.6-6.9-14.5-11.1c-1.1-0.7-2.1-1.5-2.4-2.7c-0.1-0.5,0-0.9,0.2-1.3
			c0.8-1.6,2.6-0.5,2.6-0.5l9.1,5.7c2.5,1.5,3.2,2.8,3.2,2.8s6.3,9.6,6.6,10.1S35,43.4,34.5,43z"/>
	</g>
</g>
</svg>
