<?xml version="1.0" encoding="utf-8"?>
<!-- Generator: Adobe Illustrator 24.0.1, SVG Export Plug-In . SVG Version: 6.00 Build 0)  -->
<svg version="1.1" id="Layer_1" xmlns="http://www.w3.org/2000/svg" xmlns:xlink="http://www.w3.org/1999/xlink" x="0px" y="0px"
	 viewBox="0 0 360 86.4" style="enable-background:new 0 0 360 86.4;" xml:space="preserve">
<style type="text/css">
	.st0{fill:#231F20;}
	.st1{fill:none;stroke:#231F20;stroke-width:1.500000e-02;stroke-miterlimit:3.864;}
	.st2{fill:#FFFFFF;}
	.st3{fill:#F4812A;}
	.st4{fill:#666666;}
	.st5{fill:none;stroke:#666666;stroke-width:0.75;stroke-linecap:round;}
</style>
<g>
	<path class="st0" d="M3.8,19.4c-2.3-6.8-5.7-15,0.2-18.5C5.6,0,8,0.1,10.7,1.1C24.1,6,35,23.1,36.4,25.6c0,0,1.1,0.1,1.7-0.2
		c0.7-0.4,0.6-1.2,1.1-1.8c0.6-0.8,0.8-1.4,1.6-2c0.4-0.3,0.7-0.2,1-0.6c2.4-3,6.3-7.3,12.7-11.2c0,0,1.8-1.7,2.4-0.7
		c0.2,0.4-0.4,0.9-0.8,0.9c-0.9,0-1.2,0.3-1.9,0.5c-0.5,0.2-0.9,0.5-1.2,0.7c-4.2,2.9-6.6,4.7-8.7,7.6c-0.7,0.9-0.4,0.5-0.6,0.8
		c-0.4,0.5-1.1,1.5-0.8,1.3c1.9-1,5.6-3.3,9.5-4.7c2.9-1.1,4.9-1.9,7.6-2.2c0.6-0.1,1.7-0.2,1.2,0.6c-0.1,0.2-0.4,0.2-0.6,0.2
		c-0.6,0.1-0.9-0.2-1.5-0.2c-1.2,0-1.8,0.4-3,0.8c-2.4,0.7-3.7,1.1-5.9,2.2c-2.7,1.2-6.6,3.9-6.6,3.9c0-0.1,1.1,1.4,1.5,2.4
		c0.4,1.1,0.5,1.7,0.6,2.8c0,0.1,0.9,0.7,2.3,1.7c0.8,0.6,1.2,1,1.8,1.7c0.6,0.7,1,1.1,1.5,2c0.3,0.6,0.6,1,0.6,1.7
		c0,0.7-0.1,1.1-0.5,1.7c-0.3,0.4-0.6,0.6-1,0.7c-0.6,0.2-1,0.2-1.6,0c-0.5-0.2-0.9-0.3-1.2-0.8c-0.3-0.4-0.4-0.6-0.4-1.1
		c0-0.5,0.2-0.8,0.5-1.2c0.3-0.3,0.5-0.5,1-0.5c0.3,0,0.4,0.1,0.7,0.2c0.4,0.1,0.6,0.4,0.8,0.7c0.1,0.2,0.2,0.4,0.1,0.6
		c-0.1,0.1-0.1,0.3-0.2,0.3c-0.2,0-0.1-0.3-0.3-0.5c-0.2-0.3-0.3-0.4-0.6-0.6c-0.3-0.1-0.5-0.2-0.8-0.1c-0.3,0.1-0.5,0.3-0.6,0.6
		c-0.1,0.3,0,0.5,0.1,0.8c0.1,0.3,0.3,0.5,0.6,0.7c0.3,0.2,0.5,0.3,0.9,0.3c0.3,0.1,0.5,0.1,0.8,0c0.5-0.1,0.8-0.4,1-0.9
		c0.2-0.4,0.3-1.4,0.2-1c0,0.3-0.1-0.4-0.2-0.7c-0.2-0.7-0.5-1-1-1.6c-0.4-0.5-0.7-0.8-1.1-1.3c-1.3-1.4-2.2-2.1-3.8-3.1
		c-0.8,0-1.2-0.1-1.9-0.3c-1-0.2-1.5-0.4-2.4-0.9l0.2,1.2l0.3,1.4l-0.8,0.3L39.7,27L39,26.6c-0.3,0-0.5,0.1-0.7,0.1
		c-0.4,0.1-0.3,0.6-0.4,1.6l-0.1,2.8l0,2.1c-0.9-0.1-1.4-0.3-2.2-0.4c-0.7-0.1-1.1-0.2-1.8-0.4c-0.4-0.1-0.8-0.3-1.1-0.2
		c-0.4,0.1-0.8,0.6-0.8,1.1c0,0.3,0.1,0.4,0.2,0.7c0.3,1,0.9,1.4,1.3,2.4c0.2,0.6,0.7,0.9,0.6,1.5c-0.1,0.5-0.4,0.6-0.8,1
		c-0.3,0.3-0.5,0.5-0.9,0.7c-0.3,0.1-0.5,0.1-0.8,0.3c-0.4,0.3-0.3,0.6-0.6,1c-0.4,0.6-0.8,0.9-1.4,1.3c-0.4,0.3-0.6,0.4-1,0.6
		c-0.6,0.3-1,0.3-1.5,0.7c-0.9,0.5-0.9,1.3-1.7,1.9c-0.7,0.6-1.2,0.8-2,1.2c-0.6,0.3-1,0.5-1.6,0.8C21,47.7,20.8,48,20.2,48
		c-0.3,0-0.5,0-0.8-0.2c-0.5-0.4,0-1.4,0.2-1.6c0.4-0.6,0.6-1.3,1.1-2c0.4-0.5,0.6-0.8,1.1-1.2c0.5-0.4,0.9-0.4,1.5-0.7
		c0.6-0.3,1-0.5,1.6-0.8c0.7-0.4,1-0.6,1.7-1c0.7-0.4,1-0.7,1.6-1.2c0.6-0.5,0.9-0.8,1.4-1.3c0.5-0.5,0.8-0.8,1.1-1.5
		c0.3-0.6,0.5-0.7,0.6-1.7c0,0-0.8,1-1.4,1.7c-0.9,1.1-1.3,1.7-2.4,2.6c-1,0.8-1.7,1.1-2.8,1.7c-0.8,0.4-1.3,0.7-2.1,1.1
		c-0.9,0.4-1.4,0.5-2.3,0.8c-0.6,0.2-1,0.4-1.6,0.5c-0.9,0.2-1.5,0.3-2.4,0.3c-0.7,0-1.1,0-1.7-0.1c-0.5-0.1-0.7-0.4-1.2-0.4
		c-0.5-0.1-0.8,0.2-1.3,0.2c-0.7,0-1.1-0.1-1.8-0.3c-0.6-0.2-0.9-0.4-1.4-0.8c-0.5-0.4-0.6-0.9-1.2-1.2c-0.4-0.3-0.7-0.4-1.2-0.6
		c-0.6-0.3-0.9-0.5-1.4-0.8C4.4,39,4,38.7,3.6,38.1c-0.4-0.7-0.3-1.2-0.7-1.9c-0.4-0.6-0.8-0.7-1.2-1.3c-0.5-0.8-0.5-1.3-0.8-2.2
		c-0.4-1.4-0.6-2.3-0.6-3.8c0-1.5,0.1-2.4,0.5-3.8c0.5-1.9,0.9-3,2.1-4.5C3.2,20.1,3.8,19.4,3.8,19.4"/>
	<path class="st1" d="M3.8,19.4c-2.3-6.8-5.7-15,0.2-18.5C5.6,0,8,0.1,10.7,1.1C24.1,6,35,23.1,36.4,25.6c0,0,1.1,0.1,1.7-0.2
		c0.7-0.4,0.6-1.2,1.1-1.8c0.6-0.8,0.8-1.4,1.6-2c0.4-0.3,0.7-0.2,1-0.6c2.4-3,6.3-7.3,12.7-11.2c0,0,1.8-1.7,2.4-0.7
		c0.2,0.4-0.4,0.9-0.8,0.9c-0.9,0-1.2,0.3-1.9,0.5c-0.5,0.2-0.9,0.5-1.2,0.7c-4.2,2.9-6.6,4.7-8.7,7.6c-0.7,0.9-0.4,0.5-0.6,0.8
		c-0.4,0.5-1.1,1.5-0.8,1.3c1.9-1,5.6-3.3,9.5-4.7c2.9-1.1,4.9-1.9,7.6-2.2c0.6-0.1,1.7-0.2,1.2,0.6c-0.1,0.2-0.4,0.2-0.6,0.2
		c-0.6,0.1-0.9-0.2-1.5-0.2c-1.2,0-1.8,0.4-3,0.8c-2.4,0.7-3.7,1.1-5.9,2.2c-2.7,1.2-6.6,3.9-6.6,3.9c0-0.1,1.1,1.4,1.5,2.4
		c0.4,1.1,0.5,1.7,0.6,2.8c0,0.1,0.9,0.7,2.3,1.7c0.8,0.6,1.2,1,1.8,1.7c0.6,0.7,1,1.1,1.5,2c0.3,0.6,0.6,1,0.6,1.7
		c0,0.7-0.1,1.1-0.5,1.7c-0.3,0.4-0.6,0.6-1,0.7c-0.6,0.2-1,0.2-1.6,0c-0.5-0.2-0.9-0.3-1.2-0.8c-0.3-0.4-0.4-0.6-0.4-1.1
		c0-0.5,0.2-0.8,0.5-1.2c0.3-0.3,0.5-0.5,1-0.5c0.3,0,0.4,0.1,0.7,0.2c0.4,0.1,0.6,0.4,0.8,0.7c0.1,0.2,0.2,0.4,0.1,0.6
		c-0.1,0.1-0.1,0.3-0.2,0.3c-0.2,0-0.1-0.3-0.3-0.5c-0.2-0.3-0.3-0.4-0.6-0.6c-0.3-0.1-0.5-0.2-0.8-0.1c-0.3,0.1-0.5,0.3-0.6,0.6
		c-0.1,0.3,0,0.5,0.1,0.8c0.1,0.3,0.3,0.5,0.6,0.7c0.3,0.2,0.5,0.3,0.9,0.3c0.3,0.1,0.5,0.1,0.8,0c0.5-0.1,0.8-0.4,1-0.9
		c0.2-0.4,0.3-1.4,0.2-1c0,0.3-0.1-0.4-0.2-0.7c-0.2-0.7-0.5-1-1-1.6c-0.4-0.5-0.7-0.8-1.1-1.3c-1.3-1.4-2.2-2.1-3.8-3.1
		c-0.8,0-1.2-0.1-1.9-0.3c-1-0.2-1.5-0.4-2.4-0.9l0.2,1.2l0.3,1.4l-0.8,0.3L39.7,27L39,26.6c-0.3,0-0.5,0.1-0.7,0.1
		c-0.4,0.1-0.3,0.6-0.4,1.6l-0.1,2.8l0,2.1c-0.9-0.1-1.4-0.3-2.2-0.4c-0.7-0.1-1.1-0.2-1.8-0.4c-0.4-0.1-0.8-0.3-1.1-0.2
		c-0.4,0.1-0.8,0.6-0.8,1.1c0,0.3,0.1,0.4,0.2,0.7c0.3,1,0.9,1.4,1.3,2.4c0.2,0.6,0.7,0.9,0.6,1.5c-0.1,0.5-0.4,0.6-0.8,1
		c-0.3,0.3-0.5,0.5-0.9,0.7c-0.3,0.1-0.5,0.1-0.8,0.3c-0.4,0.3-0.3,0.6-0.6,1c-0.4,0.6-0.8,0.9-1.4,1.3c-0.4,0.3-0.6,0.4-1,0.6
		c-0.6,0.3-1,0.3-1.5,0.7c-0.9,0.5-0.9,1.3-1.7,1.9c-0.7,0.6-1.2,0.8-2,1.2c-0.6,0.3-1,0.5-1.6,0.8C21,47.7,20.8,48,20.2,48
		c-0.3,0-0.5,0-0.8-0.2c-0.5-0.4,0-1.4,0.2-1.6c0.4-0.6,0.6-1.3,1.1-2c0.4-0.5,0.6-0.8,1.1-1.2c0.5-0.4,0.9-0.4,1.5-0.7
		c0.6-0.3,1-0.5,1.6-0.8c0.7-0.4,1-0.6,1.7-1c0.7-0.4,1-0.7,1.6-1.2c0.6-0.5,0.9-0.8,1.4-1.3c0.5-0.5,0.8-0.8,1.1-1.5
		c0.3-0.6,0.5-0.7,0.6-1.7c0,0-0.8,1-1.4,1.7c-0.9,1.1-1.3,1.7-2.4,2.6c-1,0.8-1.7,1.1-2.8,1.7c-0.8,0.4-1.3,0.7-2.1,1.1
		c-0.9,0.4-1.4,0.5-2.3,0.8c-0.6,0.2-1,0.4-1.6,0.5c-0.9,0.2-1.5,0.3-2.4,0.3c-0.7,0-1.1,0-1.7-0.1c-0.5-0.1-0.7-0.4-1.2-0.4
		c-0.5-0.1-0.8,0.2-1.3,0.2c-0.7,0-1.1-0.1-1.8-0.3c-0.6-0.2-0.9-0.4-1.4-0.8c-0.5-0.4-0.6-0.9-1.2-1.2c-0.4-0.3-0.7-0.4-1.2-0.6
		c-0.6-0.3-0.9-0.5-1.4-0.8C4.4,39,4,38.7,3.6,38.1c-0.4-0.7-0.3-1.2-0.7-1.9c-0.4-0.6-0.8-0.7-1.2-1.3c-0.5-0.8-0.5-1.3-0.8-2.2
		c-0.4-1.4-0.6-2.3-0.6-3.8c0-1.5,0.1-2.4,0.5-3.8c0.5-1.9,0.9-3,2.1-4.5C3.2,20.1,3.8,19.4,3.8,19.4z"/>
	<path class="st2" d="M42.6,22.9c0.5,0.9-0.1,2-0.5,2.1c-0.4,0.2-0.6,0.2-0.9,0c-0.3-0.2-0.4-0.4-0.5-0.8c0-0.3,0-0.5,0.1-0.8
		c0.1-0.4,0.2-0.6,0.4-0.9c0.2-0.2,0.3-0.4,0.6-0.4C42.3,22.2,42.4,22.5,42.6,22.9"/>
	<path class="st1" d="M42.6,22.9c0.5,0.9-0.1,2-0.5,2.1c-0.4,0.2-0.6,0.2-0.9,0c-0.3-0.2-0.4-0.4-0.5-0.8c0-0.3,0-0.5,0.1-0.8
		c0.1-0.4,0.2-0.6,0.4-0.9c0.2-0.2,0.3-0.4,0.6-0.4C42.3,22.2,42.4,22.5,42.6,22.9z"/>
	<path class="st0" d="M40.8,29.6l0.7,1.2c0.3-0.5,0.5-0.7,1-1.1c0.6-0.5,0.9-0.8,1.7-1c0,0.9,0,1.4-0.1,2.3
		c-0.1,1.5-0.4,2.3-0.5,3.8c0,0.6-0.1,0.9,0,1.5c0.1,0.5,0.2,0.7,0.4,1.2c0.2,0.6,0.2,0.9,0.5,1.4c0.2,0.3,0.2,0.6,0.5,0.6
		c0.4,0-0.1-0.6-0.1-0.9c-0.2-1.3-0.6-1.9-0.6-3.2c0-1.4,0.4-2.2,0.6-3.6c0.2-1.1,0.5-1.7,0.5-2.8c0-0.4,0.2-0.8-0.1-1
		c-0.2-0.2-1.3,0-2.1,0.3c-0.5,0.2-0.8,0.3-1.2,0.6C41.3,29.2,41.1,29.4,40.8,29.6"/>
	<path class="st1" d="M40.8,29.6l0.7,1.2c0.3-0.5,0.5-0.7,1-1.1c0.6-0.5,0.9-0.8,1.7-1c0,0.9,0,1.4-0.1,2.3
		c-0.1,1.5-0.4,2.3-0.5,3.8c0,0.6-0.1,0.9,0,1.5c0.1,0.5,0.2,0.7,0.4,1.2c0.2,0.6,0.2,0.9,0.5,1.4c0.2,0.3,0.2,0.6,0.5,0.6
		c0.4,0-0.1-0.6-0.1-0.9c-0.2-1.3-0.6-1.9-0.6-3.2c0-1.4,0.4-2.2,0.6-3.6c0.2-1.1,0.5-1.7,0.5-2.8c0-0.4,0.2-0.8-0.1-1
		c-0.2-0.2-1.3,0-2.1,0.3c-0.5,0.2-0.8,0.3-1.2,0.6C41.3,29.2,41.1,29.4,40.8,29.6z"/>
	<path class="st0" d="M38.4,32.5c0-0.3-0.1,0.5,0,0.8c0.1,0.3,0.3,0.4,0.6,0.5c0.3,0,0.5,0,0.6-0.2c0.2-0.2,0.1-0.5,0.2-0.8
		c0-0.4,0-2.6-0.1-1.9c0,0.1,0.4,1.2,2,3.1c0.5,0.6,0.5,2.2,0.6,3.2c0.1,0.8,0.2,1.8,0.3,1.9c0.3,0.4,0.5,0.3,0.5,0.4
		c0.1,0.2-0.1-1.5-0.4-2.6c-0.1-0.4,0-2.1-0.2-2.5c-0.3-0.7-0.8-1.3-1.2-2.2c-0.6-1.2-1-1.8-1.6-3c-0.3-0.7-0.4-0.8-0.6-1.8
		c-0.1-0.2-0.3-0.3-0.5-0.3c-0.3,0-0.2,0.4-0.3,0.7c-0.1,0.5,0,0.7,0,1.2C38.5,30.5,38.4,33.8,38.4,32.5"/>
	<path class="st1" d="M38.4,32.5c0-0.3-0.1,0.5,0,0.8c0.1,0.3,0.3,0.4,0.6,0.5c0.3,0,0.5,0,0.6-0.2c0.2-0.2,0.1-0.5,0.2-0.8
		c0-0.4,0-2.6-0.1-1.9c0,0.1,0.4,1.2,2,3.1c0.5,0.6,0.5,2.2,0.6,3.2c0.1,0.8,0.2,1.8,0.3,1.9c0.3,0.4,0.5,0.3,0.5,0.4
		c0.1,0.2-0.1-1.5-0.4-2.6c-0.1-0.4,0-2.1-0.2-2.5c-0.3-0.7-0.8-1.3-1.2-2.2c-0.6-1.2-1-1.8-1.6-3c-0.3-0.7-0.4-0.8-0.6-1.8
		c-0.1-0.2-0.3-0.3-0.5-0.3c-0.3,0-0.2,0.4-0.3,0.7c-0.1,0.5,0,0.7,0,1.2C38.5,30.5,38.4,33.8,38.4,32.5z"/>
</g>
<polygon class="st0" points="38.3,34 38.6,34.4 38.6,34.9 38.1,35.2 36.3,34.5 35,34.1 33.9,33.8 34.4,35.5 35.4,37.8 36.4,39.9 
	38.3,40.5 40.1,41.3 40.2,41.9 35.8,40.2 34.5,37.3 33.1,34.8 32.5,33.3 32.8,32.7 33.4,32.9 34.8,33.2 37,33.7 "/>
<polygon class="st1" points="38.3,34 38.6,34.4 38.6,34.9 38.1,35.2 36.3,34.5 35,34.1 33.9,33.8 34.4,35.5 35.4,37.8 36.4,39.9 
	38.3,40.5 40.1,41.3 40.2,41.9 35.8,40.2 34.5,37.3 33.1,34.8 32.5,33.3 32.8,32.7 33.4,32.9 34.8,33.2 37,33.7 "/>
<g>
	<path class="st0" d="M34.8,34.9l0.7,1.5c0.3,0,0.4,0,0.6-0.1c0.3-0.1,0.5-0.3,0.6-0.6c0-0.2,0-0.3-0.1-0.5l-1.2-0.4L34.8,34.9z"/>
	<path class="st1" d="M34.8,34.9l0.7,1.5c0.3,0,0.4,0,0.6-0.1c0.3-0.1,0.5-0.3,0.6-0.6c0-0.2,0-0.3-0.1-0.5l-1.2-0.4L34.8,34.9z"/>
	<path class="st2" d="M34.6,31.8c-0.1,0.1,1.1-0.3,1.6-0.8c0.3-0.3,0.4-0.6,0.5-1c0.7-2.4-2.5-6.7-5.4-10.7c-2-2.7-3.4-4.1-5.8-6.4
		c-1.3-1.3-2-2-3.4-3.2c-1.6-1.4-2.5-2.2-4.1-3.4c-0.4-0.3-1-0.8-1.4-0.4c-0.3,0.2,0.2,0.7-0.1,0.9c-0.4,0.2-1.5-1-1.9-0.6
		c-0.5,0.5,0.3,1.3,0.6,1.5c0.1,0.1-0.7-0.1-1.2-0.2c-0.3-0.1-0.5-0.2-0.9-0.2c-0.7,0-0.7,0.8-0.2,1.2c1.1,0.8,0.4,0.4,1,0.7
		c1.4,0.8,1.7,1,3.1,1.1c0.2,0,0.3-0.1,0.3-0.2c0.1-1-1.2-1.3-1.2-1.5c0.2-0.5,0.8,0.3,1.3,0.2c0.2,0,0.4,0,0.4-0.2
		c0.3-1-1-1.3-0.6-1.4c0.5-0.2,4.7,3.6,6.1,5.5c0.4,0.5-0.9,0.3-1.5,0.3c-0.4,0-0.8-0.2-1.1,0.1c-0.4,0.3,0.2,0.8,0.2,1.3
		c0,0.2,0.1,0.3,0.1,0.5c-0.1,0.3-0.5,0-0.9-0.1c-0.3,0-0.6-0.3-0.8,0c-0.2,0.3,0.6,1.4,0.7,1.6c0.4,0.6-1.9,0.1-1.8,0.9
		c0.1,0.4,0.6,0.4,0.8,0.8c0.1,0.2,0.3,0.4,0.2,0.6c-0.1,0.3-1.1,0.1-0.7,0.3c1.8,0.8,1.5,0.6,2.4,0.4c0.2-0.1,0.1-0.4,0.1-0.6
		c0-0.5-1.2-0.7-0.8-0.9c0.3-0.2,0.6,0.2,1,0.2c0.4,0,0.9,0.1,1.1-0.2c0.2-0.3,0-0.6-0.1-0.9c-0.1-0.4-0.6-0.4-0.6-0.8
		c0.1-0.6,1.2,0.4,1.5,0.1c0.2-0.2-0.6-1.2-0.5-1.4c0.2-0.4,1,0.6,1.4,0.3c0.5-0.3-0.4-1.7,0-1.4c1.7,1.3,1.9,1.7,3,2.9
		c0.6,0.6,1,0.9,1.5,1.6c1,1.1,1.6,1.7,2.6,2.8c0.8,1,1.2,1.5,1.9,2.6c0.6,0.9,1,1.3,1.5,2.2c0.7,1.4,1.5,2.7,1.3,4
		C35.9,30.7,35.2,31.1,34.6,31.8"/>
	<path class="st1" d="M34.6,31.8c-0.1,0.1,1.1-0.3,1.6-0.8c0.3-0.3,0.4-0.6,0.5-1c0.7-2.4-2.5-6.7-5.4-10.7c-2-2.7-3.4-4.1-5.8-6.4
		c-1.3-1.3-2-2-3.4-3.2c-1.6-1.4-2.5-2.2-4.1-3.4c-0.4-0.3-1-0.8-1.4-0.4c-0.3,0.2,0.2,0.7-0.1,0.9c-0.4,0.2-1.5-1-1.9-0.6
		c-0.5,0.5,0.3,1.3,0.6,1.5c0.1,0.1-0.7-0.1-1.2-0.2c-0.3-0.1-0.5-0.2-0.9-0.2c-0.7,0-0.7,0.8-0.2,1.2c1.1,0.8,0.4,0.4,1,0.7
		c1.4,0.8,1.7,1,3.1,1.1c0.2,0,0.3-0.1,0.3-0.2c0.1-1-1.2-1.3-1.2-1.5c0.2-0.5,0.8,0.3,1.3,0.2c0.2,0,0.4,0,0.4-0.2
		c0.3-1-1-1.3-0.6-1.4c0.5-0.2,4.7,3.6,6.1,5.5c0.4,0.5-0.9,0.3-1.5,0.3c-0.4,0-0.8-0.2-1.1,0.1c-0.4,0.3,0.2,0.8,0.2,1.3
		c0,0.2,0.1,0.3,0.1,0.5c-0.1,0.3-0.5,0-0.9-0.1c-0.3,0-0.6-0.3-0.8,0c-0.2,0.3,0.6,1.4,0.7,1.6c0.4,0.6-1.9,0.1-1.8,0.9
		c0.1,0.4,0.6,0.4,0.8,0.8c0.1,0.2,0.3,0.4,0.2,0.6c-0.1,0.3-1.1,0.1-0.7,0.3c1.8,0.8,1.5,0.6,2.4,0.4c0.2-0.1,0.1-0.4,0.1-0.6
		c0-0.5-1.2-0.7-0.8-0.9c0.3-0.2,0.6,0.2,1,0.2c0.4,0,0.9,0.1,1.1-0.2c0.2-0.3,0-0.6-0.1-0.9c-0.1-0.4-0.6-0.4-0.6-0.8
		c0.1-0.6,1.2,0.4,1.5,0.1c0.2-0.2-0.6-1.2-0.5-1.4c0.2-0.4,1,0.6,1.4,0.3c0.5-0.3-0.4-1.7,0-1.4c1.7,1.3,1.9,1.7,3,2.9
		c0.6,0.6,1,0.9,1.5,1.6c1,1.1,1.6,1.7,2.6,2.8c0.8,1,1.2,1.5,1.9,2.6c0.6,0.9,1,1.3,1.5,2.2c0.7,1.4,1.5,2.7,1.3,4
		C35.9,30.7,35.2,31.1,34.6,31.8z"/>
	<path class="st2" d="M12.7,12.5c-0.4,0-0.8-0.1-1.1,0.2c-0.3,0.4-0.2,0.9,0.1,1.3c0.2,0.3,0.5,0.4,0.8,0.6c0.5,0.2,0.8,0.2,1.3,0.3
		c0.5,0.1,0.9,0.2,1.4,0c0.3-0.1,0.4-0.3,0.5-0.5c0.1-0.3-0.1-0.5-0.3-0.8c-0.3-0.4-0.6-0.5-1-0.7C13.7,12.6,13.4,12.4,12.7,12.5"/>
	<path class="st1" d="M12.7,12.5c-0.4,0-0.8-0.1-1.1,0.2c-0.3,0.4-0.2,0.9,0.1,1.3c0.2,0.3,0.5,0.4,0.8,0.6c0.5,0.2,0.8,0.2,1.3,0.3
		c0.5,0.1,0.9,0.2,1.4,0c0.3-0.1,0.4-0.3,0.5-0.5c0.1-0.3-0.1-0.5-0.3-0.8c-0.3-0.4-0.6-0.5-1-0.7C13.7,12.6,13.4,12.4,12.7,12.5z"
		/>
	<path class="st2" d="M13.6,9.6c-0.3-0.1-1.7,0-1.9,0.5c-0.1,0.3,0,0.6,0.2,0.9c0.3,0.5,0.7,0.7,1.3,1c0.6,0.3,0.9,0.4,1.6,0.5
		c0.5,0.1,0.8,0.2,1.3,0c0.3-0.1,0.6-0.1,0.7-0.4c0.2-0.4-0.2-0.7-0.5-1.1c-0.4-0.6-0.9-0.7-1.6-1C14.3,9.8,14.3,9.9,13.6,9.6"/>
	<path class="st1" d="M13.6,9.6c-0.3-0.1-1.7,0-1.9,0.5c-0.1,0.3,0,0.6,0.2,0.9c0.3,0.5,0.7,0.7,1.3,1c0.6,0.3,0.9,0.4,1.6,0.5
		c0.5,0.1,0.8,0.2,1.3,0c0.3-0.1,0.6-0.1,0.7-0.4c0.2-0.4-0.2-0.7-0.5-1.1c-0.4-0.6-0.9-0.7-1.6-1C14.3,9.8,14.3,9.9,13.6,9.6z"/>
	<path class="st2" d="M12.4,15.3c-0.4,0.1-0.7,0.2-0.9,0.5c-0.3,0.5-0.5,1-0.1,1.4c0.3,0.4,0.8,0.2,1.3,0.3c1.1,0.2,2,0.5,2.2,0.3
		c0.2-0.2,0.4-0.3,0.5-0.5c0.1-0.3-0.1-0.5-0.3-0.8c-0.3-0.4-0.6-0.5-1-0.7C13.5,15.5,13.1,15.1,12.4,15.3"/>
	<path class="st1" d="M12.4,15.3c-0.4,0.1-0.7,0.2-0.9,0.5c-0.3,0.5-0.5,1-0.1,1.4c0.3,0.4,0.8,0.2,1.3,0.3c1.1,0.2,2,0.5,2.2,0.3
		c0.2-0.2,0.4-0.3,0.5-0.5c0.1-0.3-0.1-0.5-0.3-0.8c-0.3-0.4-0.6-0.5-1-0.7C13.5,15.5,13.1,15.1,12.4,15.3z"/>
	<path class="st2" d="M19.3,10l1,0c0,0,0.2,0.7,0.3,1.2c0.1,0.2,0.2,0.4,0.1,0.6c-0.1,0.2-0.4,0.2-0.6,0.3C19.7,12.1,19,12,19,12
		s0.7,0.6,0.8,1.1c0,0.2,0.1,0.5,0,0.6c-0.6,0.5-2,0.2-2,0.2s0.6,0.6,0.7,1c0.1,0.4,0.1,0.6,0.1,1c-0.3,0.1-0.4,0.2-0.7,0.3
		c-0.4,0.1-0.6,0.1-1,0.1c0.3,0.3,0.5,0.4,0.7,0.8c0.2,0.4,0.4,0.6,0.4,1.1c-0.2,0.2-0.6,0.4-0.7,0.4c-0.7-0.3-1.2-0.3-1.6-0.5
		c0,0,0.8-0.3,0.8-0.7c0.1-0.4-0.3-0.6-0.4-1c-0.1-0.4-0.3-0.6-0.1-0.9c0.1-0.2,0.3-0.1,0.4-0.2c0.2-0.2,0.6-0.4,0.6-0.4l-0.2-1.1
		c-0.1-0.4-0.4-0.7-0.1-0.9c0.2-0.2,0.5,0,0.7,0c0.2,0,0.3,0,0.5-0.1c0.2-0.1,0-0.4-0.1-0.6c-0.1-0.4-0.4-0.8,0-1
		C17.9,11,18,11,18.2,11c1.1,0.2,1.1-0.2,1.1-0.2L19.3,10z"/>
	<path class="st1" d="M19.3,10l1,0c0,0,0.2,0.7,0.3,1.2c0.1,0.2,0.2,0.4,0.1,0.6c-0.1,0.2-0.4,0.2-0.6,0.3C19.7,12.1,19,12,19,12
		s0.7,0.6,0.8,1.1c0,0.2,0.1,0.5,0,0.6c-0.6,0.5-2,0.2-2,0.2s0.6,0.6,0.7,1c0.1,0.4,0.1,0.6,0.1,1c-0.3,0.1-0.4,0.2-0.7,0.3
		c-0.4,0.1-0.6,0.1-1,0.1c0.3,0.3,0.5,0.4,0.7,0.8c0.2,0.4,0.4,0.6,0.4,1.1c-0.2,0.2-0.6,0.4-0.7,0.4c-0.7-0.3-1.2-0.3-1.6-0.5
		c0,0,0.8-0.3,0.8-0.7c0.1-0.4-0.3-0.6-0.4-1c-0.1-0.4-0.3-0.6-0.1-0.9c0.1-0.2,0.3-0.1,0.4-0.2c0.2-0.2,0.6-0.4,0.6-0.4l-0.2-1.1
		c-0.1-0.4-0.4-0.7-0.1-0.9c0.2-0.2,0.5,0,0.7,0c0.2,0,0.3,0,0.5-0.1c0.2-0.1,0-0.4-0.1-0.6c-0.1-0.4-0.4-0.8,0-1
		C17.9,11,18,11,18.2,11c1.1,0.2,1.1-0.2,1.1-0.2L19.3,10z"/>
	<path class="st2" d="M30.8,25.4c0-0.3,0.1-0.6,0.4-0.8c0.3-0.3,0.6-0.4,1.1-0.4c0.3,0,0.6-0.1,0.9,0.2c0.2,0.2,0.4,0.4,0.4,0.7
		c0,0.4-0.1,0.6-0.3,0.9c-0.2,0.4-0.6,0.5-1,0.6l-0.8-0.6L30.8,25.4z"/>
	<path class="st1" d="M30.8,25.4c0-0.3,0.1-0.6,0.4-0.8c0.3-0.3,0.6-0.4,1.1-0.4c0.3,0,0.6-0.1,0.9,0.2c0.2,0.2,0.4,0.4,0.4,0.7
		c0,0.4-0.1,0.6-0.3,0.9c-0.2,0.4-0.6,0.5-1,0.6l-0.8-0.6L30.8,25.4z"/>
	<path class="st2" d="M25,21.6l1,0.7c0.2-0.4,0.3-0.7,0.5-1c0.4-0.6,0.8-0.8,1.3-1.2c0.3-0.2,0.4-0.4,0.8-0.6l-1.4-1.3
		c0.1,0.5,0,0.8-0.2,1.3c-0.2,0.5-0.4,0.7-0.8,1.1C25.9,21,25.5,21.2,25,21.6"/>
	<path class="st1" d="M25,21.6l1,0.7c0.2-0.4,0.3-0.7,0.5-1c0.4-0.6,0.8-0.8,1.3-1.2c0.3-0.2,0.4-0.4,0.8-0.6l-1.4-1.3
		c0.1,0.5,0,0.8-0.2,1.3c-0.2,0.5-0.4,0.7-0.8,1.1C25.9,21,25.5,21.2,25,21.6z"/>
	<path class="st3" d="M22.6,20.3l1.9,1.1l0.1-0.5c0.1-0.4,0.3-0.6,0.6-1c0.3-0.4,0.7-0.5,0.9-1c0.2-0.4,0.2-0.6,0.2-1.1
		c0-0.3-0.1-0.5-0.3-0.8c-0.2-0.3-0.6-0.2-1-0.1c-0.5,0-0.7,0.2-1.1,0.4c-0.4,0.2-0.6,0.5-0.9,0.9c-0.3,0.4-0.3,0.8-0.5,1.3
		C22.5,19.8,22.6,20,22.6,20.3"/>
	<path class="st3" d="M27.1,22.9l1.2,0.8l1.3,0.9l0.1-0.4c0.2-0.2,0.3-0.4,0.5-0.5c0.2-0.2,0.3-0.3,0.5-0.4c0.2-0.1,0.4-0.1,0.6,0
		l-0.1-0.6l-0.4-0.9c-0.2-0.4-0.4-0.5-0.8-0.7c-0.4-0.2-0.6-0.4-1-0.4c-0.4,0-0.6,0.2-0.9,0.4c-0.3,0.2-0.5,0.3-0.7,0.6
		c-0.2,0.3-0.2,0.5-0.3,0.8C27.1,22.6,27.1,22.7,27.1,22.9"/>
	<path class="st2" d="M9.6,25.2c0-0.7-0.7-1.3-0.8-1.4c0-0.1,0.2-0.2,0.3-0.1c2.1,0.3,4.7,0.5,4.7,1.9c0,0.2,0,0.3-0.1,0.5
		c-0.2,0.3-0.4,0.4-0.7,0.4c-1.7,0.4-4.3,0-4.4-0.2C8.6,26.1,9.6,26,9.6,25.2"/>
	<path class="st1" d="M9.6,25.2c0-0.7-0.7-1.3-0.8-1.4c0-0.1,0.2-0.2,0.3-0.1c2.1,0.3,4.7,0.5,4.7,1.9c0,0.2,0,0.3-0.1,0.5
		c-0.2,0.3-0.4,0.4-0.7,0.4c-1.7,0.4-4.3,0-4.4-0.2C8.6,26.1,9.6,26,9.6,25.2z"/>
	<path class="st2" d="M7.8,27l2.5,0.2c0.9,0.2,2.6,0,2.6,1.3c0,1-1.4,1.1-1.9,1.1c-2.6,0-2.6,0.1-3.2,0c-0.1,0,1.1-0.5,1.1-1.2
		C8.9,27.6,8,27.3,7.8,27"/>
	<path class="st1" d="M7.8,27l2.5,0.2c0.9,0.2,2.6,0,2.6,1.3c0,1-1.4,1.1-1.9,1.1c-2.6,0-2.6,0.1-3.2,0c-0.1,0,1.1-0.5,1.1-1.2
		C8.9,27.6,8,27.3,7.8,27z"/>
	<path class="st2" d="M7.6,30.3c0,0,2.2-0.3,3.5-0.2c1,0.1,2,0.3,2.2,1c0.2,1.1-1.7,1.5-2.6,1.7c-0.9,0-2.4,0.2-2.4,0.2
		s0.9-0.8,0.6-1.5C8.7,30.7,7.6,30.3,7.6,30.3"/>
	<path class="st1" d="M7.6,30.3c0,0,2.2-0.3,3.5-0.2c1,0.1,2,0.3,2.2,1c0.2,1.1-1.7,1.5-2.6,1.7c-0.9,0-2.4,0.2-2.4,0.2
		s0.9-0.8,0.6-1.5C8.7,30.7,7.6,30.3,7.6,30.3z"/>
	<path class="st2" d="M9,34c0,0,2.6-1.1,4.6-0.8c1.9,0.3,2.4,0.5,2.5,1.4c0.2,1.1-1.8,2.2-3,2.4c-1.1,0.3-2.3,0.5-2.3,0.5
		s0.8-0.9,0.4-2.1C11.1,34.4,9,34,9,34"/>
	<path class="st1" d="M9,34c0,0,2.6-1.1,4.6-0.8c1.9,0.3,2.4,0.5,2.5,1.4c0.2,1.1-1.8,2.2-3,2.4c-1.1,0.3-2.3,0.5-2.3,0.5
		s0.8-0.9,0.4-2.1C11.1,34.4,9,34,9,34z"/>
	<path class="st2" d="M12.5,38c0.1-0.2,1.1-0.6,2.3-0.7c0.7-0.1,2.6-0.7,3.1,0.2c0.7,1.4-3.3,3.4-3.6,3.2c-0.2-0.1,0.6-0.7,0-1.7
		C13.8,38,12.4,38.3,12.5,38"/>
	<path class="st1" d="M12.5,38c0.1-0.2,1.1-0.6,2.3-0.7c0.7-0.1,2.6-0.7,3.1,0.2c0.7,1.4-3.3,3.4-3.6,3.2c-0.2-0.1,0.6-0.7,0-1.7
		C13.8,38,12.4,38.3,12.5,38z"/>
	<path class="st2" d="M12.6,21.6c0,0,0.3,0.6,0.1,1c-0.2,0.6-0.7,0.9-0.7,0.9s1.8,0.7,3,0.9c1,0.2,1.8,0.3,2.2-0.4
		c0.2-0.4-0.4-0.9-1-1.3C15.6,22.4,12.6,21.6,12.6,21.6"/>
	<path class="st1" d="M12.6,21.6c0,0,0.3,0.6,0.1,1c-0.2,0.6-0.7,0.9-0.7,0.9s1.8,0.7,3,0.9c1,0.2,1.8,0.3,2.2-0.4
		c0.2-0.4-0.4-0.9-1-1.3C15.6,22.4,12.6,21.6,12.6,21.6z"/>
	<path class="st2" d="M18.5,23.8c1.9,0.5,2.8,0.8,4.2,1.6c0.5,0.3,0.6,1.1,0.4,1.4c-0.2,0.3-0.9,0-1.2-0.1c-1.8-0.5-2.6-1.1-3.9-1.5
		c-0.2-0.1-0.5-0.6-0.4-1C17.8,23.9,18.2,23.8,18.5,23.8"/>
	<path class="st1" d="M18.5,23.8c1.9,0.5,2.8,0.8,4.2,1.6c0.5,0.3,0.6,1.1,0.4,1.4c-0.2,0.3-0.9,0-1.2-0.1c-1.8-0.5-2.6-1.1-3.9-1.5
		c-0.2-0.1-0.5-0.6-0.4-1C17.8,23.9,18.2,23.8,18.5,23.8z"/>
	<path class="st2" d="M19,26.6c-0.3-0.4-1.5-0.7-2.5-0.9c-0.6-0.1-1.2-0.2-1.6-0.1c-0.4,0.1-0.6,0.6-0.4,1c0.5,0.6,1.1,0.6,1.9,0.8
		c0.9,0.3,2,0.4,2.3,0.3C18.9,27.6,19.5,27.2,19,26.6"/>
	<path class="st1" d="M19,26.6c-0.3-0.4-1.5-0.7-2.5-0.9c-0.6-0.1-1.2-0.2-1.6-0.1c-0.4,0.1-0.6,0.6-0.4,1c0.5,0.6,1.1,0.6,1.9,0.8
		c0.9,0.3,2,0.4,2.3,0.3C18.9,27.6,19.5,27.2,19,26.6z"/>
	<path class="st2" d="M18,28.3c-0.4-0.4-1.5-0.6-2.4-0.6c-0.6,0-1.3,0-1.6,0.1c-0.4,0.1-0.7,0.8-0.4,1.1c0.5,0.5,1.2,0.7,2.1,0.8
		c0.9,0.1,2-0.1,2.2-0.2C18.2,29.2,18.5,28.8,18,28.3"/>
	<path class="st1" d="M18,28.3c-0.4-0.4-1.5-0.6-2.4-0.6c-0.6,0-1.3,0-1.6,0.1c-0.4,0.1-0.7,0.8-0.4,1.1c0.5,0.5,1.2,0.7,2.1,0.8
		c0.9,0.1,2-0.1,2.2-0.2C18.2,29.2,18.5,28.8,18,28.3z"/>
	<path class="st2" d="M18,30.7c-0.4-0.4-1.3-0.5-2.1-0.5c-0.6,0-1.3,0-1.6,0.1c-0.4,0.1-0.7,0.8-0.4,1.1c0.5,0.5,1.2,0.7,2.1,0.8
		c0.8,0.1,1.9-0.2,2.1-0.4C18.3,31.6,18.4,31.1,18,30.7"/>
	<path class="st1" d="M18,30.7c-0.4-0.4-1.3-0.5-2.1-0.5c-0.6,0-1.3,0-1.6,0.1c-0.4,0.1-0.7,0.8-0.4,1.1c0.5,0.5,1.2,0.7,2.1,0.8
		c0.8,0.1,1.9-0.2,2.1-0.4C18.3,31.6,18.4,31.1,18,30.7z"/>
	<path class="st2" d="M18.9,32.6c-0.5-0.2-1.7,0.1-2.1,0.4c-0.2,0.2-0.4,0.5-0.4,1.1c0,0.2,0.4,0.6,0.6,0.7c0.7,0.4,1.7,0.3,2.3-0.3
		c0.1-0.1-0.5-0.4-0.6-0.7C18.5,33.1,19.1,32.6,18.9,32.6"/>
	<path class="st1" d="M18.9,32.6c-0.5-0.2-1.7,0.1-2.1,0.4c-0.2,0.2-0.4,0.5-0.4,1.1c0,0.2,0.4,0.6,0.6,0.7c0.7,0.4,1.7,0.3,2.3-0.3
		c0.1-0.1-0.5-0.4-0.6-0.7C18.5,33.1,19.1,32.6,18.9,32.6z"/>
	<path class="st2" d="M19.8,35.9c-0.6-0.1-1.8,0-1.5,1.4c0,0.2,0.3,0.6,0.5,0.7c0.8,0.3,1.2,0.2,1.7-0.5c0.1-0.1-0.6-0.3-0.7-0.6
		C19.5,36.3,20.1,35.9,19.8,35.9"/>
	<path class="st1" d="M19.8,35.9c-0.6-0.1-1.8,0-1.5,1.4c0,0.2,0.3,0.6,0.5,0.7c0.8,0.3,1.2,0.2,1.7-0.5c0.1-0.1-0.6-0.3-0.7-0.6
		C19.5,36.3,20.1,35.9,19.8,35.9z"/>
	<path class="st2" d="M20,38.8c0,0,0.5-0.5,0.8-0.4c0.9,0.1,0.7,0.2,1,0.6c0.3,0.4,0.4,1.1,0.2,1.3l-0.6,0.4c-0.4,0.3-1-0.1-1.3-0.6
		C19.8,39.6,19.8,39,20,38.8"/>
	<path class="st1" d="M20,38.8c0,0,0.5-0.5,0.8-0.4c0.9,0.1,0.7,0.2,1,0.6c0.3,0.4,0.4,1.1,0.2,1.3l-0.6,0.4c-0.4,0.3-1-0.1-1.3-0.6
		C19.8,39.6,19.8,39,20,38.8z"/>
	<path class="st2" d="M27.1,33c0,0,1.2-0.6,1.3-1.5c0.1-1-0.5-1.9-1.4-2.2c-1.1-0.3-2.3,0.2-2.6,1.3c-0.2,0.8,0.6,2,0.6,2l-0.7,0.6
		c0,0.2,1.1,0.5,1.1,0.5s-0.9,0.8-0.8,1.4c0.1,0.8,1.8,0.9,1.8,0.9s-0.7,0.9-0.7,1.2c0.1,0.7,1.1,0.4,1.8,0.1c0.7-0.3,1.9-1,1.3-1.5
		c-0.3-0.3-1.1-0.2-1.1-0.2s0.5-1.8,0.5-1.3C28.2,35.1,27.1,33,27.1,33"/>
	<path class="st1" d="M27.1,33c0,0,1.2-0.6,1.3-1.5c0.1-1-0.5-1.9-1.4-2.2c-1.1-0.3-2.3,0.2-2.6,1.3c-0.2,0.8,0.6,2,0.6,2l-0.7,0.6
		c0,0.2,1.1,0.5,1.1,0.5s-0.9,0.8-0.8,1.4c0.1,0.8,1.8,0.9,1.8,0.9s-0.7,0.9-0.7,1.2c0.1,0.7,1.1,0.4,1.8,0.1c0.7-0.3,1.9-1,1.3-1.5
		c-0.3-0.3-1.1-0.2-1.1-0.2s0.5-1.8,0.5-1.3C28.2,35.1,27.1,33,27.1,33z"/>
	<path class="st2" d="M31.6,31.7c0.2-0.1-0.2-2.1-1.1-2.2c-0.6-0.1-0.8,0.1-0.9,0.7c-0.1,0.4,1.2,1.8,1.8,1.7
		C31.5,31.9,31.5,31.8,31.6,31.7"/>
	<path class="st1" d="M31.6,31.7c0.2-0.1-0.2-2.1-1.1-2.2c-0.6-0.1-0.8,0.1-0.9,0.7c-0.1,0.4,1.2,1.8,1.8,1.7
		C31.5,31.9,31.5,31.8,31.6,31.7z"/>
	<path class="st2" d="M30.7,32.8c0.1-0.4-0.3-0.8-0.7-0.8c-0.4-0.1-1,0.1-1,0.5c0,0.4,0.3,0.6,0.7,0.7
		C30.1,33.3,30.6,33.2,30.7,32.8"/>
	<path class="st1" d="M30.7,32.8c0.1-0.4-0.3-0.8-0.7-0.8c-0.4-0.1-1,0.1-1,0.5c0,0.4,0.3,0.6,0.7,0.7
		C30.1,33.3,30.6,33.2,30.7,32.8z"/>
	<path class="st2" d="M30.8,33.6c0,0.7-0.3,1.3-0.8,1.7c-0.5,0.3-1.4-0.3-1.1-1.2c0.1-0.3,0.6,0.1,0.8,0C30,34,30.8,33.5,30.8,33.6"
		/>
	<path class="st1" d="M30.8,33.6c0,0.7-0.3,1.3-0.8,1.7c-0.5,0.3-1.4-0.3-1.1-1.2c0.1-0.3,0.6,0.1,0.8,0C30,34,30.8,33.5,30.8,33.6z
		"/>
	<path class="st2" d="M21.3,24.1c-1.6-1.1-0.6-1.9,0.8-1.3c1.3,0.5,2.9,1.4,3.1,1.7c0.1,0.3-0.8,0.7-2,0.5
		C22.8,24.8,22,24.6,21.3,24.1"/>
	<path class="st1" d="M21.3,24.1c-1.6-1.1-0.6-1.9,0.8-1.3c1.3,0.5,2.9,1.4,3.1,1.7c0.1,0.3-0.8,0.7-2,0.5
		C22.8,24.8,22,24.6,21.3,24.1z"/>
	<path class="st3" d="M11.9,21.8c-0.6-0.6-2.7-1.4-4.7-1.6c-3.1-0.3-5.8,1.9-2.8,2.2c1.8,0.2,4.2,0.4,6.1,0.7
		C11.7,23.3,12.7,22.6,11.9,21.8"/>
	<path class="st3" d="M8.5,24.4c-0.6-0.5-1-0.8-3.1-1.1c-3.9-0.7-4.9,2.7-2.5,2.9c1.8,0.2,2.4-0.1,4.2-0.1
		C8.3,26.1,9.4,25.2,8.5,24.4"/>
	<path class="st3" d="M7.7,27.8c-0.5-0.6-0.4-0.6-2.6-0.9c-4.2-0.5-4.9,2.5-2.7,2.9c1.8,0.4,2.3,0.3,4.1-0.2
		C7.7,29.4,8.3,28.4,7.7,27.8"/>
	<path class="st3" d="M6.7,30.7c-1.1-0.3-2-0.1-2.8-0.1c-3.8,0-2.8,3.1-1,3.4c1.6,0.3,2.2,0,3.9-0.7C7.9,32.8,8.2,31.1,6.7,30.7"/>
	<path class="st3" d="M9.4,34.8c-1.2-0.3-2-0.3-2.8-0.3c-3.9-0.1-2.8,3.5-1,3.9c1.6,0.3,2.2,0.3,3.9-0.5
		C10.6,37.3,10.7,35.2,9.4,34.8"/>
	<path class="st3" d="M12.8,38.8c-0.9-0.2-1.6-0.1-2.2-0.1c-3.1,0.1-2.1,2.9-0.6,3.1c1.3,0.2,1.8,0.1,3.1-0.6
		C13.9,40.8,13.9,39.1,12.8,38.8"/>
	<path class="st3" d="M18.9,39.5c-0.5-0.4-1.2,0.3-1.9,0.6c-1.1,0.5-2.6,1.1-2.4,1.9c0.2,0.8,1.9,0.7,2.9,0.3c0.8-0.3,1.6-0.3,2-0.6
		C20,41.3,19.5,40,18.9,39.5"/>
	<path class="st3" d="M24.7,29c-1.1-0.7-1.7-1.1-3.2-1.3c-0.7-0.1-2.2,0.6-2.6,1.7c-0.5,1.1,0.5,2.4,1,2.4c1.2,0.1,2.6,0.1,3.5,0.1
		c0.3,0-0.6-1-0.3-1.8C23.4,29.1,23.9,29,24.7,29"/>
	<path class="st3" d="M23.8,33.8c-1.6,0.1-2.5,0.6-3.4,0.6c-0.9,0-0.9-1.6-0.3-1.7c1.2-0.3,2.5-0.3,3.5,0c0.2,0-0.6,0.3-0.4,0.5
		C23.2,33.2,23.8,33.6,23.8,33.8"/>
	<path class="st3" d="M24.6,36.2c-1.2,1-2.2,1-3.1,0.9c-1-0.1-0.7-1.5-0.2-1.8c1-0.7,1.4-0.7,2.5-0.7c0.2,0-0.4,0.7-0.3,1.1
		C23.7,36.1,24.4,36,24.6,36.2"/>
	<path class="st3" d="M25.9,38.3c-1.3,1-1.8,1-2.6,1c-0.8,0-1-1.1-0.4-1.6c0.5-0.5,0.9-0.5,2-0.8c0.1,0-0.3,0.7-0.1,1.1
		C25,38.3,25.7,38.2,25.9,38.3"/>
	<path class="st3" d="M29.4,36.6c0,0-2,1.5-3.3,2.4c-1.7,1-4.4,2.5-4.4,2.5s3.2-0.8,4.9-2C27.8,38.5,29.4,36.6,29.4,36.6"/>
	<path class="st3" d="M29.6,28.4c0.1-0.5-0.1-0.8-0.3-1.2c-0.3-0.6-0.7-0.7-1.2-1.1c-0.5-0.3-0.7-0.6-1.3-0.8
		c-0.4-0.1-0.7-0.2-1.2,0c-0.5,0.2-0.8,0.5-0.9,1c-0.1,0.5,0.2,0.9,0.5,1.3c0.3,0.6,0.7,0.7,1.3,1.1c0.4,0.3,1.2,0.5,1.2,0.5
		s0.7,0.2,1.2,0C29.2,29.1,29.5,28.9,29.6,28.4"/>
	<path class="st3" d="M9.9,17.1c0-0.5-4.7,0-5.2,0.4c-0.6,0.4-0.5,1.4,0.3,1.1c1.3-0.6,3.5-1.1,4.8-1.3C9.9,17.2,9.9,17.3,9.9,17.1"
		/>
	<path class="st3" d="M5.7,1.7C5.5,2.2,6.8,2.5,7.3,2.5c2,0.3,2.6,0.5,4.2,1c1.1,0.4,1.7,0.6,2.8,1c0.7,0.3,1.5,0.9,1.9,0.7
		c0.2-0.1-0.1-0.4-0.4-0.5c-1.3-1-1.6-1-2.8-1.5c-1-0.5-1.6-0.8-2.7-1.1C9.6,1.9,9.1,1.6,8.3,1.6C7.3,1.4,6.1,0.8,5.7,1.7"/>
	<path class="st3" d="M6,2.9C5,2.9,4.4,2.8,3.5,3.1C3.2,3.2,2.9,3.2,2.7,3.5c-0.4,0.6-0.1,1.4,1,1.4C5.8,4.7,6.6,5,8,5.3
		c1.4,0.3,2.2,0.9,3.7,1c0.7,0.1,1.5,0.1,1.7,0c0.4-0.1-0.8-1.3-1.4-1.6c-0.9-0.4-1.1-0.6-1.8-0.9c-0.6-0.2-1-0.3-1.7-0.5
		C7.5,3.1,7,3,6,2.9"/>
	<path class="st3" d="M2.6,5.6c1.4-0.1,2-0.2,3.2-0.1c1.2,0.1,1.8,0.3,2.9,0.6c0.8,0.3,1.3,0.3,2,0.8c0.5,0.4,1.1,1.1,1.1,1.2
		c0.1,0.4-0.4,0.4-0.7,0.5c-0.6,0.1-0.4,0-0.7,0c-1.2,0-1.8-0.2-3-0.2C6.6,8.2,6,8.2,5.2,8.1C3.9,8,2.5,7.8,2.4,7.7
		C1.9,7.1,1.7,7.2,1.7,6.7c0-0.4,0.1-0.6,0.3-0.9C2.2,5.7,2.3,5.6,2.6,5.6"/>
	<path class="st3" d="M1.7,9.2c-0.1,0.4,0.2,0.6,0.4,0.9c0.5,0.6,1.3,0.4,2,0.5c1,0.1,1.3,0.1,2.2,0.2c0.9,0.1,1.3,0.1,2.2,0.2
		c0.9,0,1.7,0.3,2.4,0c0.3-0.1,0-0.8-0.2-0.9C9.6,9.5,9.7,9.4,9.2,9.3C8.3,9,8.1,9.1,7.5,8.9C6.7,8.8,5.3,8.6,3.8,8.6
		c-0.5,0-0.8-0.2-1.3,0C2.1,8.7,1.7,8.8,1.7,9.2"/>
	<path class="st3" d="M2.4,12.4c0,0.4,0.2,0.8,0.6,0.9c0.5,0,1.1,0.3,1.8,0.4c1.8,0.2,3.8,0,4.6-0.1c0.2,0,1.2-0.4,1.2-0.6
		c0.1-0.4-0.4-0.8-0.6-0.9c-0.6-0.3-0.5-0.2-0.8-0.3c-1.1-0.3-1.7-0.4-2.8-0.5c-1.3-0.2-2.1-0.2-3.2-0.2C2.7,11.1,2.4,11.8,2.4,12.4
		"/>
	<path class="st3" d="M3.2,15.3c0,0.5,0.3,1.1,0.7,1.1c0.4,0-0.2,0,1.1,0.1c1.7,0.1,2.8,0.1,3.6,0c0.2,0,1.8-0.4,1.9-0.5
		c0.1-0.4,0.1-0.5,0-0.8c-0.2-0.4-0.6-0.6-1-0.6c-1.1-0.1-2.2-0.3-3.5-0.4c-0.7,0-0.7,0.1-1.8,0.1C3.6,14.3,3.2,14.7,3.2,15.3"/>
	<path class="st3" d="M32.7,27c0,0.1,1.1,0.8,1.5,1.6c0.4,0.8,0.3,2.3,0.4,2.2c1-0.5,1.2-1.7,0.5-3.1C34.4,26.5,32.9,26.3,32.7,27"
		/>
	<path class="st2" d="M11.5,20.3c1.4-0.4,2.4-0.7,3.9-0.5c1.3,0.1,1.9,0.4,3.1,0.8c1.5,0.5,2.2,0.9,3.6,1.6c1.4,0.7,2.1,1.2,3.5,2
		c1,0.6,1.6,0.8,2.6,1.5c1,0.8,1.7,1.1,2.5,2.2c0.4,0.6,0.6,0.9,0.9,1.5c0.2,0.5,0.2,0.8,0.5,1.3c0.2,0.4,0.1,1,0.6,1
		c0.3,0,0.5,0.1,0.7-0.1c0.3-0.2,0.5-0.4,0.5-0.7c0.1-1.3-0.7-2.5-1.7-3.6c-0.5-0.5-0.9-0.7-1.5-1.2c-1.3-1-2.1-1.4-3.4-2.3
		c-1.4-0.9-2.3-1.4-3.8-2.1c-1.7-0.8-2.7-1.2-4.5-1.8c-2.8-0.9-1.4-0.3-7.3-1.7l-3.3,0.7C9.4,19.8,11.5,20.3,11.5,20.3"/>
	<path class="st1" d="M11.5,20.3c1.4-0.4,2.4-0.7,3.9-0.5c1.3,0.1,1.9,0.4,3.1,0.8c1.5,0.5,2.2,0.9,3.6,1.6c1.4,0.7,2.1,1.2,3.5,2
		c1,0.6,1.6,0.8,2.6,1.5c1,0.8,1.7,1.1,2.5,2.2c0.4,0.6,0.6,0.9,0.9,1.5c0.2,0.5,0.2,0.8,0.5,1.3c0.2,0.4,0.1,1,0.6,1
		c0.3,0,0.5,0.1,0.7-0.1c0.3-0.2,0.5-0.4,0.5-0.7c0.1-1.3-0.7-2.5-1.7-3.6c-0.5-0.5-0.9-0.7-1.5-1.2c-1.3-1-2.1-1.4-3.4-2.3
		c-1.4-0.9-2.3-1.4-3.8-2.1c-1.7-0.8-2.7-1.2-4.5-1.8c-2.8-0.9-1.4-0.3-7.3-1.7l-3.3,0.7C9.4,19.8,11.5,20.3,11.5,20.3z"/>
	<path class="st3" d="M19.9,21.9c-0.6-0.6-2.6-1.8-5-2.4c-1.8-0.4-2.9-0.7-4.8-0.8c-2.8-0.2-6.4,0.8-2.6,1.2
		c1.8,0.2,3.6,0.5,5.8,1.1c2.1,0.6,3.8,1.5,5.4,1.8C19.9,23,20.8,22.7,19.9,21.9"/>
	<path class="st0" d="M28.2,79.8h14.9c11.9,0,14.2-6.8,14.2-11.4c0-5.8-3.8-8.3-7.4-9.1l0.1-0.2c6.5-0.9,9.3-5,9.3-9.1
		c0-2.9-1-5.1-3.1-6.5c-2.2-1.5-5.3-1.9-8.9-1.8H35.5l-0.3,1.6l2.9,0.3c1.1,0.1,1.4,0.8,1,2.6l-5.8,29c-0.3,1.8-0.9,2.5-2.1,2.6
		l-2.7,0.3L28.2,79.8z M42.9,60.2c4.9,0,9.1,1.5,9.1,7.8c0,4.9-2.6,9.8-9.2,9.8c-4.8,0-5-1.4-4.6-3.5L41,60.2H42.9z M41.4,58.3
		L44,45.5c0.3-1.7,0.6-1.9,3.9-1.9c4.1,0,6.4,2.3,6.4,6.2c0,2.8-1.2,5-2.9,6.5c-1.6,1.4-4.2,2-6.8,2H41.4z"/>
	<path class="st0" d="M68.6,40.4c-2.1,0-3.2,1.9-3.2,3.6c0,2,1.2,3.1,2.7,3.1c1.9,0,3.1-1.5,3.1-3.7C71.2,41.3,69.9,40.4,68.6,40.4
		 M59.9,53.7L59.6,55l2.8,0.3c1.3,0.1,1.5,0.6,1,2.5L59.3,75c-0.7,3.1-0.1,5.4,2.5,5.4c3.5,0,6.3-3.7,7.9-7.9l-1.2-0.8
		c-0.9,1.9-3,5.8-4.4,5.8c-1,0-0.9-1.3-0.5-3l5.3-22.1l-0.2-0.3L59.9,53.7z"/>
	<path class="st0" d="M84.5,52.1c-11.6,0-14.4,13.6-14.4,18.3c0,5.9,2.8,10,9,10c5.3,0,8.8-3,11.1-7c2.3-4,3.1-8.6,3.1-11.6
		C93.3,54.2,88.5,52.1,84.5,52.1 M84.4,54.1c3,0,4.1,2.4,4.1,5.8c0,3.9-2.5,18.7-9.3,18.7c-2.8,0-4.4-1.9-4.4-5.8
		C74.8,66.7,78,54.1,84.4,54.1"/>
	<path class="st0" d="M116.3,79.8l2.5-9.7h-1.5c-2.5,6.8-4.7,7.8-10.2,7.8c-2.4,0-4.9-0.2-5.5-0.7c-0.7-0.7-0.8-1.5-0.2-4.1
		l5.4-26.8c0.4-1.8,0.9-2.6,2.1-2.8l2.9-0.2l0.3-1.6H98.6l-0.3,1.6l2.9,0.3c1.1,0.1,1.5,0.9,1.1,2.7l-5.9,29
		c-0.4,1.9-0.9,2.5-2.1,2.6l-2.7,0.3l-0.3,1.6H116.3z"/>
	<path class="st0" d="M139.8,52.6l-0.2,0.7c-0.8-0.7-2.3-1.2-3.6-1.2c-11.7,0-17.2,14.5-17.2,21.7c0,3.3,1.4,6.5,4.7,6.5
		c5.2,0,9.8-6.8,12.6-12.4h0.1l-1.7,6.3c-1,3.9-0.5,6.2,2.2,6.2c3.7,0,6.5-3.7,8.1-7.9l-1.2-0.8c-0.9,1.9-3,5.8-4.4,5.8
		c-1,0-0.9-1.3-0.5-3l5.2-22H139.8z M139,55.3c-0.9,4.1-2.6,9.5-5.2,13.9c-2.7,4.7-5.7,8.4-8.1,8.4c-1.6,0-2.2-1.7-2.2-3.9
		c0-6.1,4.8-19.7,12.5-19.7C137.2,54.1,138.3,54.5,139,55.3"/>
	<path class="st0" d="M156.7,39.2l-0.2-0.3l-8.8,1.3l-0.3,1.3l2.8,0.4c1.2,0.2,1.4,0.5,1,2.7L144,79.8h1.8l1.5-3.2
		c0.9,2.3,3.4,3.9,6.2,3.9c5.7,0,9.9-4.3,12.3-9.1c2.4-4.8,3.2-9.7,3.2-12.2c0-4.1-1.6-6.9-5.2-6.9c-3.7,0-8.6,3.8-12.3,11.3h-0.1
		L156.7,39.2z M164.1,59.6c0,4-2.9,18.9-10.1,18.9c-2.5,0-4-2-4-4.7c0-2.6,1-6.4,2.6-9.6c2.2-4.4,5.9-9.1,8.9-9.1
		C163.3,55,164.1,56.4,164.1,59.6"/>
	<path class="st0" d="M179.3,52.1c-5,0-7.9,3.6-7.9,8.1c0,2.9,1.8,5.4,4.3,7.7c2.1,1.9,3.4,4.3,3.4,6.4c0,2.6-1.5,4.1-3.5,4.1
		c-1.8,0-3.6-1.7-4.4-4.6c-0.3-1-0.7-1.7-1.6-1.7c-1.5,0-2.5,1.5-2.5,3c0,2.4,2.7,5.2,7.3,5.2c5.3,0,8.5-3.8,8.5-8.3
		c0-3-1.2-5.4-4.5-8.4c-2.9-2.7-3.5-4.5-3.5-6.1c0-1.8,1.2-3.6,3-3.6c1.6,0,2.9,1.2,3.9,3.8c0.3,0.7,0.6,1.1,1.4,1.1
		c1,0,2.4-0.8,2.4-2.5C185.5,54.7,183.6,52.1,179.3,52.1"/>
	<path class="st0" d="M190,54.3c1.3,0,2.4,1.1,2.4,2.5c0,1.4-1,2.5-2.4,2.5c-1.3,0-2.4-1.1-2.4-2.5C187.6,55.4,188.6,54.3,190,54.3
		 M190,59.7c1.6,0,2.9-1.3,2.9-2.9c0-1.6-1.3-2.9-2.9-2.9c-1.6,0-2.9,1.3-2.9,2.9C187.1,58.4,188.4,59.7,190,59.7 M189.6,55.7
		c0-0.1,0-0.2,0.4-0.2c0.3,0,0.6,0.1,0.6,0.6c0,0.4-0.3,0.6-0.7,0.6h-0.3V55.7z M190,58.3v-0.2l-0.2,0c-0.1,0-0.2-0.1-0.2-0.2v-1
		h0.3c0.2,0,0.4,0.1,0.5,0.2c0.1,0.2,0.1,0.5,0.2,0.8c0.1,0.2,0.2,0.3,0.6,0.3h0.3v-0.1c-0.1,0-0.2-0.1-0.3-0.1
		c-0.1-0.1-0.2-0.3-0.2-0.5c-0.1-0.4-0.1-0.6-0.6-0.8v0c0.4-0.1,0.8-0.3,0.8-0.8c0-0.4-0.3-0.7-1-0.7h-1.4v0.2l0.2,0
		c0.1,0,0.2,0.1,0.2,0.2v2.2c0,0.1,0,0.2-0.2,0.2l-0.2,0v0.2H190z"/>
	<path class="st0" d="M58.5,23.3l-0.1,0.5l0.9,0.1c0.4,0,0.5,0.3,0.3,0.8L58.2,32c-0.2,0.9-0.4,1.6-0.6,2.2
		c-0.2,0.6-0.5,0.7-0.9,0.8L56.2,35l-0.1,0.5h3.7L60,35l-0.6-0.1c-0.5-0.1-0.8-0.2-0.7-0.8c0-0.6,0.1-1.3,0.3-2.2l1.5-7.2h0
		c1.5,3.6,2.9,7.1,4.4,10.7h1l1.8-8.7c0.2-0.9,0.4-1.6,0.6-2.2c0.2-0.6,0.5-0.7,0.9-0.8l0.5-0.1l0.1-0.5H66l-0.1,0.5l0.6,0.1
		c0.5,0.1,0.8,0.2,0.7,0.7c0,0.6-0.1,1.3-0.3,2.2l-1.3,6.4h-0.1c-1.4-3.3-2.7-6.6-4.1-9.9H58.5z"/>
	<path class="st0" d="M71.5,23.3l-0.1,0.5l1,0.1c0.4,0,0.5,0.2,0.3,0.8L70.8,34c-0.1,0.6-0.3,0.8-0.6,0.8L69.2,35l-0.1,0.5h8.3
		l0.8-3.1h-0.5c-0.8,2.2-1.5,2.5-3.5,2.5c-0.8,0-1.6-0.1-1.8-0.2c-0.2-0.2-0.3-0.5-0.1-1.3l0.8-3.9h2.1c1.4,0,1.4,0.4,1.4,1.5h0.5
		l0.7-3.7h-0.5c-0.4,1.2-0.6,1.5-2,1.5h-2.1l0.9-4.4c0.1-0.4,0.2-0.5,0.4-0.5h1.9c2,0,2,0.7,1.8,2.3h0.5l0.6-2.9H71.5z"/>
	<path class="st0" d="M80.7,23.3l-0.1,0.5l0.7,0.1c0.3,0,0.4,0.2,0.5,0.7l0.7,10.8h1.1l4.3-9.7H88l0.8,9.7H90l2.8-6.3
		c0.9-2,1.7-3.8,2-4.3c0.4-0.8,0.6-1,1.5-1.1l0.1-0.5h-3.6l-0.1,0.5l1,0.1c0.3,0,0.3,0.2,0.1,0.6c-0.3,0.7-0.8,2.2-1.8,4.4l-1.9,4.4
		h-0.1l-0.8-9.7h-1.1l-4.3,9.7h-0.1l-0.5-8.9c0-0.4,0.1-0.5,0.3-0.6l1-0.1l0.1-0.5H80.7z"/>
	<path class="st0" d="M101.8,23.3l-0.1,0.5l1,0.1c0.4,0,0.5,0.2,0.3,0.8l-1.9,9.3c-0.1,0.6-0.3,0.8-0.6,0.8L99.5,35l-0.1,0.5h8.3
		l0.8-3.1H108c-0.8,2.2-1.5,2.5-3.5,2.5c-0.8,0-1.6-0.1-1.8-0.2c-0.2-0.2-0.3-0.5-0.1-1.3l0.8-3.9h2.1c1.4,0,1.4,0.4,1.4,1.5h0.5
		l0.7-3.7h-0.5c-0.4,1.2-0.6,1.5-2,1.5h-2.1l0.9-4.4c0.1-0.4,0.2-0.5,0.4-0.5h1.9c2,0,1.9,0.7,1.8,2.3h0.5l0.6-2.9H101.8z"/>
	<path class="st0" d="M111.9,23.3l-0.1,0.5l0.9,0.1c0.4,0,0.5,0.3,0.3,0.8l-1.5,7.2c-0.2,0.9-0.4,1.6-0.6,2.2
		c-0.2,0.6-0.5,0.7-0.9,0.8l-0.5,0.1l-0.1,0.5h3.7l0.1-0.5l-0.6-0.1c-0.5-0.1-0.8-0.2-0.7-0.8c0-0.6,0.1-1.3,0.3-2.2l1.5-7.2h0
		c1.5,3.6,2.9,7.1,4.4,10.7h1l1.8-8.7c0.2-0.9,0.4-1.6,0.6-2.2c0.2-0.6,0.5-0.7,0.9-0.8l0.5-0.1l0.1-0.5h-3.7l-0.1,0.5l0.6,0.1
		c0.5,0.1,0.8,0.2,0.7,0.7c0,0.6-0.1,1.3-0.3,2.2l-1.3,6.4H119c-1.4-3.3-2.7-6.6-4.1-9.9H111.9z"/>
	<path class="st0" d="M133.3,23.9c-1-0.6-2.2-0.9-3.6-0.9c-2.4,0-4.2,1-5.3,2.5c-1,1.5-1.5,3.3-1.5,4.9c0,1.8,0.5,3.2,1.3,4
		c0.9,0.9,2.2,1.3,3.7,1.3c1.2,0,2.5-0.3,3.4-0.7l0.7-3.6c0.1-0.6,0.2-0.9,0.5-0.9l0.7-0.1l0.1-0.5h-4.2l-0.1,0.5l1.2,0.1
		c0.3,0,0.4,0.2,0.3,0.8l-0.6,2.7c-0.1,0.5-0.3,1-2,1c-1.9,0-3.3-1.4-3.3-4.5c0-2.8,1.3-6.9,5-6.9c2.3,0,2.6,1.5,2.5,3h0.5
		L133.3,23.9z"/>
	<path class="st0" d="M141.5,35.5l0.8-3.1h-0.5c-0.8,2.2-1.5,2.5-3.3,2.5c-0.8,0-1.6-0.1-1.8-0.2c-0.2-0.2-0.3-0.5-0.1-1.3l1.8-8.6
		c0.1-0.6,0.3-0.8,0.7-0.9l1-0.1l0.1-0.5h-4.4l-0.1,0.5l0.9,0.1c0.4,0,0.5,0.3,0.3,0.9L135,34c-0.1,0.6-0.3,0.8-0.7,0.8l-0.9,0.1
		l-0.1,0.5H141.5z"/>
	<path class="st0" d="M150.5,30.1h-3.2c0.8-1.7,1.7-3.5,2.6-5.2h0L150.5,30.1z M153.5,35.5l0.1-0.5l-0.6-0.1c-0.5-0.1-0.6-0.3-0.6-1
		l-1.2-10.6H150l-2.7,5.2c-0.8,1.6-2.1,4.2-2.7,5.2c-0.5,0.9-0.8,1.1-1.3,1.2l-0.5,0.1l-0.1,0.5h3.6l0.1-0.5l-0.9-0.1
		c-0.3,0-0.3-0.3-0.2-0.7c0.5-1.1,1-2.3,1.6-3.5h3.6l0.4,3.4c0,0.5-0.1,0.7-0.4,0.7l-0.8,0.1l-0.1,0.5H153.5z"/>
	<path class="st0" d="M156.6,23.3l-0.1,0.5l0.9,0.1c0.4,0,0.5,0.3,0.4,0.8l-1.5,7.2c-0.2,0.9-0.4,1.6-0.6,2.2
		c-0.2,0.6-0.5,0.7-0.9,0.8l-0.5,0.1l-0.1,0.5h3.7L158,35l-0.6-0.1c-0.5-0.1-0.8-0.2-0.7-0.8c0-0.6,0.1-1.3,0.3-2.2l1.5-7.2h0
		c1.5,3.6,3,7.1,4.4,10.7h1l1.8-8.7c0.2-0.9,0.4-1.6,0.6-2.2c0.2-0.6,0.5-0.7,0.9-0.8l0.5-0.1l0.1-0.5h-3.7l-0.1,0.5l0.6,0.1
		c0.5,0.1,0.8,0.2,0.7,0.7c0,0.6-0.1,1.3-0.3,2.2l-1.3,6.4h-0.1c-1.4-3.3-2.7-6.6-4.1-9.9H156.6z"/>
	<path class="st0" d="M166.7,35.5h4.9c3.2,0,5-1.3,6.2-3.2c0.9-1.5,1.1-3,1.1-4.1c0-1.4-0.5-2.8-1.4-3.7c-0.9-0.9-2.3-1.3-4.1-1.3
		H169l-0.1,0.5l0.9,0.1c0.4,0,0.4,0.3,0.3,0.9l-1.9,9.3c-0.1,0.6-0.3,0.8-0.6,0.8l-0.9,0.1L166.7,35.5z M173.5,23.9
		c3.3,0.1,3.6,2.5,3.6,3.9c0,1.5-0.3,3-1,4.3c-0.9,1.7-2.3,2.7-4.9,2.7c-0.9,0-1.5-0.1-1.3-0.9l1.9-9.4
		C171.9,24,172.1,23.9,173.5,23.9"/>
	<path class="st0" d="M189.7,79.5l0.1-0.4L189,79c-0.3,0-0.4-0.3-0.3-0.7l1.6-7.8c0.1-0.5,0.2-0.7,0.6-0.7l0.7-0.1l0.1-0.4H188
		l-0.1,0.4l0.8,0.1c0.3,0,0.4,0.3,0.3,0.7l-1.6,7.8c-0.1,0.5-0.2,0.7-0.6,0.7l-0.7,0.1l-0.1,0.4H189.7z"/>
	<path class="st0" d="M192.5,79.5c0.4-1.5,0.6-2.3,1-3.3c0.5-1.3,1.8-3.5,2.9-3.5c0.5,0,0.6,0.5,0.4,1.1l-1.2,4.4
		c-0.2,0.8,0,1.5,0.7,1.5c1,0,1.8-1,2.2-2.1l-0.3-0.2c-0.2,0.5-0.8,1.6-1.2,1.6c-0.3,0-0.3-0.3-0.1-0.8l1-3.9c0.3-1.2,0.1-2.2-1-2.2
		c-1.3,0-2.7,1.6-3.5,3.3h0l0.9-3.3l-0.1-0.1l-2.5,0.4l-0.1,0.4l0.8,0.1c0.3,0,0.3,0.2,0.2,0.7l-1.4,6.1L192.5,79.5z"/>
	<path class="st0" d="M204.2,77.2c-0.5,0.7-1.3,1.7-2.1,1.7c-1,0-1.2-0.9-1.2-2c0-1.9,1-4.5,2.2-4.5c0.4,0,0.7,0.3,0.8,1.2
		c0,0.3,0.1,0.4,0.4,0.4c0.3,0,0.9-0.3,0.9-0.8c0-0.8-0.7-1.3-1.7-1.3c-2.4,0-3.9,2.8-3.9,5.3c0,1.8,1,2.4,1.9,2.4
		c1,0,2.1-0.5,3.1-2.2L204.2,77.2z"/>
	<path class="st0" d="M206.9,79.6c0.5,0,0.9-0.4,0.9-1c0-0.4-0.3-0.8-0.8-0.8c-0.5,0-0.9,0.4-0.9,1
		C206.1,79.3,206.4,79.6,206.9,79.6"/>
</g>
<g>
	<path class="st4" d="M260.8,27.5c0.3-1,0.5-2.1,0.6-2.6c-0.1,0-0.2,0-0.3,0c-0.2,0-0.5,0-0.7,0l0.1-0.3c0.7-0.1,1.3-0.3,1.9-0.6
		h0.5c-0.2,0.6-0.6,2.3-0.6,2.4l-1,4.1c1.4-1.4,2.1-1.9,2.9-1.9c1,0,1.3,1,1.3,1.6c0,2.6-2.6,5.8-5.1,5.8c-0.5,0-1.1-0.2-1.1-1.1
		c0-0.8,0.5-2.7,0.6-2.9L260.8,27.5z M260.2,34.6c0,0.6,0.3,0.8,0.8,0.8c1.5,0,3-2.7,3-4.7c0-0.7-0.4-0.9-0.7-0.9
		c-0.7,0-1.9,1.3-2.4,1.8C260.3,33.7,260.2,34.1,260.2,34.6z"/>
	<path class="st4" d="M270.1,34.6c-0.6,0.7-1.4,1.5-2.4,1.5c-1.3,0-1.6-1.5-1.6-2.3c0-2.1,1.4-5.1,3.8-5.1c0.8,0,1.2,0.5,1.2,1
		c0,1.4-2.5,2.3-3.6,2.6c-0.1,0.3-0.2,0.6-0.2,1.2c0,1.6,0.9,1.6,1,1.6c0.6,0,1.1-0.5,1.5-0.8L270.1,34.6z M270.1,29.7
		c0-0.4-0.2-0.5-0.5-0.5c-0.4,0-1.2,0.3-1.9,2.4C268.3,31.4,270.1,30.8,270.1,29.7z"/>
</g>
<g>
	<path class="st4" d="M280,35.9v-13h1.1v13H280z"/>
	<path class="st4" d="M290.2,34L290.2,34l0-11.2h1.1v13H290l-4.8-11.1h0v11.1H284v-13h1.4L290.2,34z"/>
	<path class="st4" d="M297.6,28.8c1.9,0.8,3.3,1.4,3.3,3.7c0,2.2-1.5,3.7-3.7,3.7c-2.4,0-3.6-1.7-3.6-4h1.1c0,1.6,0.7,3,2.4,3
		c1.6,0,2.6-1,2.6-2.6c0-2-1.4-2.3-2.9-2.9c-1.8-0.7-3-1.5-3-3.6c0-2.1,1.3-3.6,3.4-3.6c2,0,3.4,1.4,3.3,3.5h-1.1
		c0.1-1.4-0.8-2.4-2.2-2.4c-1.5,0-2.2,1.1-2.2,2.5c0,1.3,0.4,1.8,1.6,2.3L297.6,28.8z"/>
	<path class="st4" d="M303.4,35.9v-13h2.3c2.9,0,4.4,0.7,4.4,3.4c0,1.2-0.3,2.2-1.1,2.8c-0.8,0.7-2.3,0.9-2.8,0.9h-1.7v5.9H303.4z
		 M304.5,29h1c2,0,3.5-0.3,3.5-2.6c0-2-1-2.5-2.8-2.5h-1.6V29z"/>
	<path class="st4" d="M312.5,35.9v-13h1.1v13H312.5z"/>
	<path class="st4" d="M317.7,29.7v6.1h-1.1v-13h2.5c2.4,0,4,0.7,4,3.3c0,1.3-0.5,2.8-1.9,3.1v0c1.5,0.4,1.7,1.5,1.7,3.2
		c0,0.6-0.1,2.9,0.6,3.3v0.2h-1.2c-0.5-1.1-0.5-3.3-0.5-4.3c-0.1-1.7-1.4-1.9-2.9-1.9H317.7z M317.7,28.7h2c0.4,0,2.3-0.1,2.3-2.5
		c0-1.9-0.9-2.4-2.6-2.4h-1.6V28.7z"/>
	<path class="st4" d="M325.7,35.9v-13h5.9v1h-4.8v4.7h4.3v1h-4.3v5.3h4.9v1H325.7z"/>
	<path class="st4" d="M333.9,22.8h2.3c1.5,0,2.8,0.1,3.9,1.2c0.9,1,1.2,3,1.2,4.3c0,1.5,0,3.4-0.5,4.8c-0.8,2.2-2.2,2.7-4.4,2.7
		h-2.6V22.8z M335.1,34.8h1.4c0.6,0,1.4,0,2-0.3c1.7-0.8,1.8-3.7,1.8-5.2c0-1.6,0-4.3-1.7-5.2c-0.7-0.4-1.7-0.3-2.5-0.3h-1V34.8z"/>
</g>
<g>
	<path class="st4" d="M247.8,47.5c0.1-0.4,0.1-0.5,0.2-0.8c-0.3,0-0.4-0.1-1,0.1l0.1-0.4c0.4-0.1,1.4-0.4,2-0.7h0.3
		c-0.1,0.4-0.5,1.6-0.8,2.9l-1.2,4.8c-0.1,0.3-0.5,2-0.5,2.7c0,0.3,0.1,0.5,0.3,0.5c0.2,0,0.7-0.4,1-0.6v0.5
		c-0.3,0.3-1.2,1.4-1.9,1.4c-0.5,0-0.6-0.7-0.6-1.1c0-0.4,0.1-0.7,0.1-1c-0.9,1.1-1.6,2.1-2.7,2.1c-0.5,0-1.4-0.3-1.4-2
		c0-2.8,1.9-5.5,4-5.5c0.4,0,0.9,0.2,1.2,0.4L247.8,47.5z M245.3,51.1c-1.3,0-2.5,2.6-2.5,4.4c0,0.7,0.3,1.3,0.9,1.3
		c0.7,0,1.8-1.3,2.3-2.2c0.1-0.6,0.5-2.1,0.6-2.7C246.2,51.4,245.9,51.1,245.3,51.1z"/>
	<path class="st4" d="M249.5,51.7c0.2-0.2,0.3-0.2,1-0.9c0.1-0.1,0.5-0.4,0.7-0.4c0.5,0,0.5,0.6,0.5,0.8c0,0.2,0,1.1-0.5,2.5
		c0.3-0.7,0.8-1.5,1.5-2.6c0.2-0.2,0.6-0.8,1.1-0.8c0.6,0,0.8,0.5,0.8,0.9c0,0.6-0.3,1.4-0.8,1.4c-0.2,0-0.3-0.2-0.3-0.3
		c0-0.1,0-0.3,0-0.3c0-0.2-0.1-0.3-0.2-0.3c-0.7,0-2.2,2.5-2.9,5.6c-0.4,0.1-0.8,0.4-0.9,0.6H249c0.9-2.3,1.6-5.3,1.6-5.8
		c0,0,0-0.3-0.2-0.3c-0.2,0-0.6,0.3-1,0.6L249.5,51.7z"/>
	<path class="st4" d="M255.3,52c0.4-0.4,1.6-1.7,2.4-1.7c0.2,0,0.4,0.1,0.4,0.4c0,0.2,0,0.4-0.4,1.5l-1.1,3.2
		c-0.1,0.3-0.3,0.9-0.3,1.1c0,0.1,0.1,0.2,0.2,0.2c0.1,0,0.2-0.1,0.3-0.1c0.1-0.1,0.7-0.7,0.8-0.7l0.1,0.5c-0.8,0.8-1.5,1.4-2.1,1.4
		c-0.3,0-0.6-0.2-0.6-0.6c0-0.3,0.1-0.7,0.4-1.4l1-3c0.2-0.4,0.2-0.7,0.2-0.8c0-0.1-0.1-0.2-0.2-0.2c-0.4,0-0.8,0.4-0.9,0.6
		L255.3,52z M259.1,47.4c0,0.4-0.3,0.7-0.7,0.7c-0.4,0-0.7-0.3-0.7-0.7s0.3-0.7,0.7-0.7C258.7,46.7,259.1,47,259.1,47.4z"/>
	<path class="st4" d="M258.5,52.4c0.5-0.7,1.5-2.1,2.4-2.1c0.6,0,1.2,0.6,1.2,1.7c0,1.3-0.7,3.7-1,4.6c2.2-1.3,3.3-2.8,3.3-4
		c0-0.5,0-0.6-0.3-1.4c0-0.1-0.1-0.2-0.1-0.4c0-0.2,0.2-0.5,0.6-0.5c0.8,0,0.8,1.4,0.8,1.5c0,1.7-1.3,3.6-3.3,4.8
		c-0.9,0.6-1.4,0.9-1.6,1.2l-0.6,0.1c0.3-0.9,1.1-4.4,1.1-5.5c0-0.5-0.2-1.1-0.7-1.1c-0.2,0-0.3,0-0.6,0.3c-0.5,0.5-0.8,0.8-0.9,1.1
		L258.5,52.4z"/>
	<path class="st4" d="M270.1,56.3c-0.6,0.7-1.4,1.5-2.4,1.5c-1.3,0-1.6-1.5-1.6-2.3c0-2.1,1.4-5.1,3.8-5.1c0.8,0,1.2,0.5,1.2,1
		c0,1.4-2.5,2.3-3.6,2.6c-0.1,0.3-0.2,0.6-0.2,1.2c0,1.6,0.9,1.6,1,1.6c0.6,0,1.1-0.5,1.5-0.8L270.1,56.3z M270.1,51.4
		c0-0.4-0.2-0.5-0.5-0.5c-0.4,0-1.2,0.3-1.9,2.4C268.3,53.1,270.1,52.5,270.1,51.4z"/>
</g>
<g>
	<path class="st4" d="M279.9,44.5h2.3c1.5,0,2.8,0.1,3.9,1.2c0.9,1,1.2,3,1.2,4.3c0,1.5,0,3.4-0.5,4.8c-0.8,2.2-2.2,2.7-4.4,2.7
		h-2.6V44.5z M281,56.5h1.4c0.6,0,1.4,0,2-0.3c1.7-0.8,1.8-3.7,1.8-5.2c0-1.6,0-4.2-1.7-5.2c-0.7-0.4-1.7-0.3-2.5-0.3h-1V56.5z"/>
	<path class="st4" d="M290.1,57.5v-13h1.1v13H290.1z"/>
	<path class="st4" d="M297.6,50.4c1.9,0.8,3.3,1.4,3.3,3.7c0,2.2-1.5,3.7-3.7,3.7c-2.4,0-3.6-1.7-3.6-4h1.1c0,1.6,0.7,3,2.4,3
		c1.6,0,2.6-1,2.6-2.6c0-2-1.4-2.3-2.9-2.9c-1.8-0.7-3-1.5-3-3.6c0-2.1,1.3-3.6,3.4-3.6c2,0,3.4,1.4,3.3,3.5h-1.1
		c0.1-1.4-0.8-2.4-2.2-2.4c-1.5,0-2.2,1.1-2.2,2.5c0,1.3,0.4,1.8,1.6,2.3L297.6,50.4z"/>
	<path class="st4" d="M310.6,53.1c0.1,2.2-1.1,4.7-3.7,4.7c-3.8,0-3.8-4.4-3.8-7.2c0-2.7,0.3-6.5,3.8-6.5c2.3,0,3.5,1.9,3.5,4.1
		h-1.1c-0.1-1.5-0.7-3.1-2.4-3.1c-2.7,0-2.6,4-2.6,5.7c0,2-0.1,5.9,2.8,5.9c1.9,0,2.4-2.1,2.4-3.7H310.6z"/>
	<path class="st4" d="M313.1,50.7c0-2.7,0.4-6.5,3.8-6.5c3.8,0,3.8,4.3,3.8,7.1s-0.2,6.5-3.9,6.5C313.2,57.9,313.1,53.4,313.1,50.7z
		 M319.7,51.1c0-1.9,0-5.8-2.8-5.8c-2.6,0-2.6,3.8-2.6,5.7c0,2-0.1,5.9,2.8,5.9C319.8,56.8,319.7,52.9,319.7,51.1z"/>
	<path class="st4" d="M322.5,44.5h1.2l2.9,11.5h0l3-11.5h1.1l-3.5,13h-1.3L322.5,44.5z"/>
	<path class="st4" d="M332.5,57.5v-13h5.9v1h-4.8v4.7h4.3v1h-4.3v5.3h4.9v1H332.5z"/>
	<path class="st4" d="M341.7,51.4v6.1h-1.1v-13h2.5c2.4,0,4,0.7,4,3.3c0,1.3-0.5,2.8-1.9,3.1v0c1.5,0.4,1.7,1.5,1.7,3.2
		c0,0.6-0.1,2.9,0.6,3.3v0.2h-1.2c-0.5-1.1-0.5-3.3-0.5-4.3c-0.1-1.7-1.4-1.9-2.9-1.9H341.7z M341.7,50.4h2c0.4,0,2.3-0.1,2.3-2.5
		c0-1.9-0.9-2.4-2.6-2.4h-1.6V50.4z"/>
	<path class="st4" d="M355.7,44.5h1.2l-3.5,7.5v5.5h-1.1V52l-3.4-7.5h1.2l2.7,6.2L355.7,44.5z"/>
</g>
<g>
	<path class="st4" d="M253.2,72.9c0,0.3-0.3,0.6-0.6,0.6c-0.5,0-1-0.7-1.5-0.7c-0.5,0-0.6,0.3-0.6,0.6c0,0.4,0.4,1,0.7,1.5
		c0.3,0.5,0.8,1.4,0.8,2.1c0,1.4-1.5,2.5-2.7,2.5c-0.5,0-1.3-0.2-1.3-0.8c0-0.4,0.3-0.6,0.6-0.6c0.4,0,0.8,0.6,1.5,0.6
		c0.6,0,1-0.6,1-1c0-0.5-0.5-1.3-0.8-1.8c-0.6-1-0.7-1.4-0.7-1.9c0-1.5,1.5-2,2.3-2C253.1,72,253.2,72.6,253.2,72.9z"/>
	<path class="st4" d="M253.9,72.8l0.1-0.4c0.8,0,1.6-0.3,2.3-1.9h0.5l-0.5,1.7h1.6l-0.1,0.5h-1.7l-0.7,2.5c-0.3,0.9-0.6,2.2-0.6,2.7
		c0,0.3,0.2,0.4,0.3,0.4c0.2,0,0.7-0.3,1.3-0.6v0.4c-1.4,1.2-2.1,1.4-2.4,1.4c-0.2,0-0.6-0.2-0.6-0.7c0-0.4,0.1-1,0.5-2.3l1-3.6
		H253.9z"/>
	<path class="st4" d="M263.9,71.5c-0.6,1.5-1.2,3.2-1.5,4.5c-0.1,0.2-0.3,1.1-0.3,1.8c0,0.1,0,0.5,0.3,0.5c0.3,0,0.6-0.3,1.1-0.8
		l0.2,0.4c-0.8,1-1.6,1.7-2.1,1.7c-0.6,0-0.6-1-0.6-1.2c0-0.3,0-0.6,0.1-0.8c-0.7,0.9-1.7,2.1-2.7,2.1c-0.5,0-1-0.5-1-1.6
		c0-2.3,2.3-5.3,5.1-5.4c0.1-0.3,0.2-0.6,0.3-0.9L263.9,71.5z M258.4,77.3c0,1,0.5,1,0.6,1c0.8,0,1.9-1.2,2.2-1.6
		c0.1-0.7,0.7-2.6,0.8-3C259.8,73.6,258.4,75.3,258.4,77.3z"/>
	<path class="st4" d="M264.3,74.7c0.8-2.3,1.3-2.6,1.9-2.6c0.7,0,1.1,0.6,1.4,1.4c0.5,1.6,0.6,4.1,0.6,5c0.7-1.4,1.4-3,1.4-4.1
		c0-0.4,0-0.5-0.3-1.4c0-0.1,0-0.2,0-0.2c0-0.4,0.3-0.6,0.6-0.6c0.5,0,0.7,0.6,0.7,1.2c0,1-0.5,4.1-3.1,7.2c-0.6,0.8-2.9,3.2-5,3.2
		c-0.2,0-1,0-1-0.6c0-0.3,0.3-0.6,0.6-0.6c0.1,0,0.2,0,0.6,0.1c0.2,0.1,0.5,0.1,0.6,0.1c1.5,0,3.2-1.7,4.2-3.1
		c-0.1-3-0.6-6.5-1.4-6.5c-0.5,0-1,1.1-1.3,1.8L264.3,74.7z"/>
</g>
<g>
	<path class="st4" d="M283.1,73.8v-1h3.9v6.5h-0.9l-0.1-1.3h0c-0.6,1.1-1.5,1.6-2.8,1.6c-3.7,0-3.7-4.4-3.7-7.1
		c0-2.8,0.2-6.6,3.9-6.6c2.2,0,3.5,1.8,3.5,3.9h-1.1c-0.2-1.4-0.7-2.9-2.4-2.9c-2.9,0-2.8,4-2.8,5.8s0,5.8,2.7,5.8
		c2.5,0,2.6-2.9,2.7-4.8H283.1z"/>
	<path class="st4" d="M289.9,79.2v-13h5.9v1H291v4.7h4.3v1H291v5.3h4.9v1H289.9z"/>
	<path class="st4" d="M304.2,77.4L304.2,77.4l0-11.2h1.1v13H304l-4.8-11.1h0v11.1H298v-13h1.4L304.2,77.4z"/>
	<path class="st4" d="M308.2,66.2h1.1v9.4c0,1.8,0.4,2.9,2.4,2.9c2,0,2.5-1.2,2.5-3v-9.3h1.1v9.1c0,2.5-0.8,4.3-3.6,4.3
		c-2.5,0-3.5-1.4-3.5-3.7V66.2z"/>
	<path class="st4" d="M318.4,79.2v-13h1.1v13H318.4z"/>
	<path class="st4" d="M328.6,77.4L328.6,77.4l0-11.2h1.1v13h-1.4l-4.8-11.1h0v11.1h-1.1v-13h1.4L328.6,77.4z"/>
	<path class="st4" d="M332.5,79.2v-13h5.9v1h-4.8v4.7h4.3v1h-4.3v5.3h4.9v1H332.5z"/>
</g>
<line class="st5" x1="227.5" y1="19.8" x2="227.5" y2="84.1"/>
</svg>
